<svg width="201" height="134" viewBox="0 0 201 134" fill="none" xmlns="http://www.w3.org/2000/svg">
<path d="M137.199 43.9926L137.252 46.7108L137.254 46.7756C137.257 46.9348 137.319 47.0872 137.428 47.2035C137.537 47.3198 137.685 47.392 137.843 47.4063L140.106 47.6059C140.143 47.6093 140.179 47.6153 140.214 47.6247C140.456 47.6919 140.646 47.894 140.68 48.1477C140.9 49.6389 141.416 51.0711 142.197 52.36C142.229 52.4138 142.252 52.4708 142.268 52.528C142.296 52.6378 142.295 52.7531 142.266 52.8626C142.236 52.9721 142.179 53.0721 142.1 53.1531L140.756 54.4908C140.671 54.577 140.612 54.6848 140.584 54.8024C140.557 54.9199 140.562 55.0428 140.6 55.1575C140.625 55.226 140.66 55.2953 140.709 55.3576L142.446 57.5221C142.55 57.6514 142.699 57.7368 142.863 57.7615C143.027 57.7862 143.195 57.7484 143.332 57.6555L145.427 56.2487C145.528 56.181 145.646 56.1434 145.768 56.1404C145.889 56.1374 146.009 56.1691 146.114 56.2317C146.424 56.4136 146.743 56.5813 147.069 56.7342C147.675 57.0174 148.305 57.2463 148.952 57.4181L148.955 57.4194C149.084 57.4526 149.199 57.5245 149.286 57.6253C149.373 57.7262 149.427 57.8512 149.44 57.9835L149.71 60.528L149.725 60.6557C149.741 60.8153 149.817 60.9628 149.937 61.069C150.057 61.1752 150.213 61.2322 150.373 61.2286L153.154 61.1725C153.492 61.1631 153.773 60.9038 153.804 60.5662L154.03 58.0492C154.041 57.9133 154.096 57.7845 154.185 57.6812C154.274 57.578 154.394 57.5057 154.526 57.4746C155.669 57.1946 156.76 56.7392 157.763 56.1247C157.888 56.0496 158.034 56.0185 158.178 56.0363C158.323 56.0542 158.457 56.1199 158.56 56.223L160.147 57.81C160.262 57.9257 160.417 57.9944 160.58 58.003C160.743 58.0117 160.904 57.9595 161.031 57.8567L163.209 56.1125C163.333 56.0133 163.415 55.8714 163.439 55.7148C163.463 55.5582 163.427 55.3983 163.339 55.2667L161.69 52.8058C161.622 52.7033 161.583 52.5838 161.578 52.4605C161.574 52.3372 161.604 52.2152 161.665 52.1081C162.111 51.3291 162.464 50.5006 162.718 49.6396C162.752 49.5168 162.822 49.4072 162.92 49.3251C163.017 49.2431 163.137 49.1925 163.264 49.18L166.325 48.857C166.487 48.8397 166.636 48.7625 166.744 48.6405C166.852 48.5185 166.91 48.3607 166.907 48.198L166.855 45.4092C166.851 45.2663 166.801 45.1287 166.711 45.0175C166.621 44.9063 166.497 44.8276 166.359 44.7935C166.329 44.7868 166.298 44.7792 166.266 44.7785L163.472 44.5297C163.346 44.5201 163.225 44.4732 163.125 44.3949C163.025 44.3167 162.95 44.2105 162.911 44.09C162.903 44.0685 162.895 44.0473 162.892 44.0243C162.877 43.9569 162.864 43.8939 162.842 43.8269C162.653 43.041 162.38 42.2776 162.028 41.5498C161.907 41.3084 161.96 41.0133 162.156 40.8208L163.835 39.1416C163.95 39.0261 164.018 38.8724 164.026 38.7097C164.035 38.5471 163.983 38.3871 163.881 38.2603L163.495 37.7784L162.145 36.1C161.935 35.8349 161.556 35.7791 161.273 35.9665L159.21 37.3522C158.99 37.5021 158.704 37.4927 158.488 37.3384C157.477 36.6131 156.354 36.0578 155.164 35.6944L155.109 35.1602L154.876 32.9695C154.864 32.8389 154.81 32.7155 154.724 32.6165C154.638 32.5176 154.523 32.4482 154.395 32.4179C154.341 32.4042 154.285 32.3985 154.229 32.4009L151.43 32.4519C151.27 32.4567 151.118 32.5196 151.001 32.6287C150.885 32.7378 150.812 32.8857 150.797 33.0446L150.645 34.7647C150.632 34.9072 150.572 35.0413 150.475 35.1462C150.377 35.2512 150.248 35.3211 150.107 35.3451C148.916 35.5355 147.763 35.9135 146.69 36.4652C146.437 36.5956 146.135 36.5505 145.944 36.3515L143.937 34.345C143.828 34.2369 143.683 34.1727 143.529 34.1646C143.376 34.1566 143.225 34.2052 143.105 34.3013L140.906 36.0681C140.645 36.2764 140.588 36.6483 140.773 36.9196L142.489 39.4795C142.639 39.6988 142.636 39.9851 142.486 40.2067C142.161 40.6886 141.875 41.1956 141.631 41.7229C141.497 42.0089 141.375 42.3004 141.265 42.5965C141.222 42.7094 141.15 42.8083 141.055 42.8825C140.96 42.9567 140.846 43.0033 140.727 43.0171L137.792 43.3277C137.628 43.3447 137.476 43.4223 137.367 43.5453C137.257 43.6684 137.197 43.8279 137.199 43.9926ZM148.66 51.6876C148.019 51.296 147.418 50.7739 146.879 50.1101C146.763 49.9706 146.651 49.8011 146.541 49.6179C146.078 48.8229 145.735 47.7279 145.723 46.9263C145.641 40.7942 152.759 38.1366 156.706 42.7151C156.77 42.7913 156.834 42.867 156.897 42.9463C157.485 43.679 157.98 45.0577 158.003 45.9959C158.014 46.4671 157.981 46.9384 157.905 47.4036C157.147 51.8537 152.315 53.9157 148.66 51.6876Z" fill="url(#paint0_linear_119_81)"/>
<path d="M127.836 30.0099L127.869 31.688L127.869 31.728C127.872 31.8263 127.91 31.9203 127.977 31.9921C128.044 32.0639 128.136 32.1085 128.233 32.1172L129.63 32.2405C129.653 32.2425 129.676 32.2463 129.697 32.2521C129.847 32.2934 129.964 32.4183 129.984 32.5751C130.12 33.4955 130.439 34.3796 130.921 35.1751C130.941 35.2084 130.955 35.2434 130.965 35.279C130.982 35.3468 130.982 35.4179 130.964 35.4855C130.945 35.5532 130.91 35.6149 130.861 35.6649L130.031 36.4905C129.979 36.5438 129.943 36.6103 129.926 36.6829C129.909 36.7555 129.912 36.8313 129.935 36.9021C129.95 36.9444 129.972 36.9872 130.002 37.0256L131.075 38.3619C131.139 38.4416 131.231 38.4943 131.332 38.5095C131.434 38.5248 131.537 38.5014 131.622 38.444L132.915 37.5757C132.977 37.5338 133.05 37.5106 133.125 37.5087C133.2 37.5069 133.274 37.5265 133.339 37.5652C133.887 37.8879 134.476 38.1343 135.091 38.2975L135.093 38.2984C135.172 38.3189 135.243 38.3632 135.297 38.4255C135.351 38.4877 135.384 38.5649 135.392 38.6466L135.559 40.2173L135.568 40.2961C135.587 40.4983 135.762 40.6544 135.968 40.6497L137.685 40.6151C137.786 40.6126 137.882 40.5732 137.956 40.5042C138.03 40.4352 138.076 40.3415 138.086 40.2408L138.225 38.6872C138.232 38.6033 138.266 38.5237 138.321 38.46C138.376 38.3962 138.45 38.3516 138.532 38.3324C139.237 38.1595 139.911 37.8784 140.53 37.4991C140.607 37.4528 140.697 37.4336 140.786 37.4446C140.875 37.4556 140.958 37.4962 141.022 37.5599L142.001 38.5394C142.073 38.6108 142.168 38.6533 142.269 38.6586C142.37 38.6639 142.469 38.6317 142.547 38.5682L143.892 37.4915C143.968 37.4303 144.018 37.3427 144.033 37.246C144.048 37.1493 144.026 37.0506 143.972 36.9694L142.954 35.4505C142.912 35.3872 142.888 35.3134 142.885 35.2373C142.882 35.1612 142.901 35.0858 142.939 35.0197C143.214 34.5388 143.432 34.0274 143.589 33.4959C143.609 33.4201 143.653 33.3524 143.713 33.3018C143.773 33.2512 143.847 33.22 143.925 33.2122L145.815 33.0128C145.915 33.0021 146.007 32.9544 146.074 32.8791C146.14 32.8038 146.176 32.7064 146.175 32.6059L146.143 30.8844C146.14 30.7962 146.109 30.7113 146.053 30.6426C145.998 30.5739 145.921 30.5254 145.836 30.5043C145.818 30.5003 145.798 30.4956 145.779 30.4952L144.054 30.3415C143.976 30.3356 143.901 30.3067 143.84 30.2584C143.778 30.2101 143.732 30.1446 143.707 30.0702C143.703 30.0568 143.698 30.0438 143.696 30.0295C143.687 29.988 143.679 29.9491 143.665 29.9078C143.548 29.4226 143.38 28.9514 143.163 28.5021C143.127 28.4284 143.115 28.3451 143.129 28.2642C143.143 28.1833 143.183 28.109 143.242 28.0521L144.278 27.0156C144.349 26.9444 144.391 26.8495 144.396 26.7491C144.401 26.6487 144.369 26.5499 144.306 26.4716L144.068 26.1739L143.235 25.1378C143.172 25.0592 143.082 25.0071 142.982 24.9918C142.882 24.9765 142.78 24.9992 142.697 25.0554L141.423 25.911C141.357 25.9556 141.279 25.9787 141.199 25.9771C141.119 25.9755 141.042 25.9494 140.977 25.9023C140.353 25.4546 139.66 25.1118 138.926 24.8875L138.891 24.5578L138.748 23.2056C138.738 23.1071 138.692 23.016 138.618 22.9508C138.543 22.8855 138.447 22.8511 138.348 22.8545L136.621 22.886C136.522 22.8889 136.428 22.9277 136.356 22.9951C136.284 23.0624 136.239 23.1537 136.23 23.2518L136.136 24.3137C136.128 24.4017 136.091 24.4845 136.031 24.5492C135.971 24.614 135.891 24.6571 135.804 24.672C135.069 24.7895 134.357 25.0228 133.694 25.3632C133.538 25.4438 133.352 25.4159 133.234 25.2931L131.995 24.0547C131.928 23.9879 131.838 23.9483 131.743 23.9433C131.649 23.9383 131.555 23.9683 131.481 24.0276L130.124 25.1182C130.046 25.1794 129.995 25.2676 129.98 25.3651C129.965 25.4625 129.987 25.5621 130.042 25.6439L131.101 27.224C131.146 27.2903 131.17 27.3686 131.17 27.4487C131.17 27.5288 131.145 27.607 131.1 27.6729C130.899 27.9704 130.722 28.2834 130.572 28.6089C130.489 28.7855 130.413 28.9654 130.345 29.1482C130.319 29.2179 130.274 29.2789 130.216 29.3248C130.157 29.3706 130.087 29.3994 130.013 29.408L128.202 29.5996C127.991 29.6219 127.834 29.7986 127.836 30.0099ZM134.911 34.7602C134.515 34.5183 134.144 34.196 133.811 33.7864C133.734 33.6905 133.665 33.5889 133.603 33.4825C133.317 32.9916 133.105 32.3158 133.097 31.8211C133.047 28.0356 137.441 26.395 139.878 29.2215C139.917 29.2684 139.956 29.3153 139.995 29.364C140.358 29.8164 140.664 30.6676 140.678 31.2467C140.685 31.5504 140.663 31.8407 140.618 32.1157C140.149 34.8627 137.167 36.1357 134.911 34.7602Z" fill="url(#paint1_linear_119_81)"/>
<path d="M34.8887 56.034L34.9323 58.2736L34.9336 58.3267C34.9365 58.4579 34.9877 58.5834 35.0773 58.6793C35.1669 58.7752 35.2887 58.8347 35.4194 58.8464L37.2835 59.011C37.3143 59.0139 37.3443 59.0188 37.3728 59.0267C37.5723 59.0818 37.7288 59.2484 37.7565 59.4575C37.9378 60.6861 38.363 61.8661 39.007 62.9281C39.0331 62.9725 39.0521 63.0194 39.065 63.0665C39.0882 63.1571 39.0876 63.252 39.0633 63.3423C39.039 63.4325 38.9919 63.5149 38.9264 63.5815L37.8188 64.6837C37.7493 64.7548 37.7006 64.8435 37.678 64.9404C37.6554 65.0372 37.6598 65.1384 37.6907 65.2329C37.711 65.2894 37.7398 65.3465 37.7804 65.3979L39.2118 67.1815C39.2976 67.2879 39.4203 67.3582 39.5556 67.3785C39.6908 67.3988 39.8287 67.3676 39.9421 67.2911L41.6678 66.132C41.751 66.0762 41.8484 66.0452 41.9486 66.0427C42.0488 66.0403 42.1476 66.0663 42.2335 66.1179C42.9647 66.549 43.7515 66.8779 44.572 67.0955L44.5742 67.0966C44.6804 67.1239 44.7757 67.1831 44.8472 67.2662C44.9188 67.3493 44.9632 67.4523 44.9744 67.5613L45.1964 69.6578L45.2087 69.7632C45.2222 69.8946 45.2846 70.0162 45.3837 70.1036C45.4827 70.1911 45.6111 70.238 45.7432 70.2351L48.0339 70.1889C48.1688 70.1855 48.2979 70.1329 48.3966 70.0408C48.4954 69.9487 48.5569 69.8237 48.5697 69.6893L48.7559 67.6156C48.7653 67.5036 48.8099 67.3974 48.8834 67.3123C48.957 67.2272 49.0556 67.1676 49.1651 67.1421C50.1061 66.9114 51.0056 66.5362 51.8317 66.03C51.9343 65.9681 52.0548 65.9424 52.1737 65.957C52.2927 65.9717 52.4033 66.0258 52.4878 66.1108L53.7959 67.4184C53.8911 67.5137 54.0182 67.5703 54.1527 67.5775C54.2872 67.5846 54.4196 67.5417 54.5244 67.457L56.3189 66.0197C56.4207 65.938 56.4881 65.821 56.5078 65.692C56.5275 65.563 56.4981 65.4313 56.4254 65.3229L55.0675 63.2955C55.0109 63.211 54.979 63.1125 54.9753 63.0109C54.9716 62.9093 54.9964 62.8087 55.0468 62.7204C55.4141 62.0785 55.7052 61.396 55.9142 60.6867C55.9421 60.5855 56 60.4952 56.0803 60.4276C56.1605 60.36 56.2594 60.3183 56.3638 60.3079L58.8861 60.0419C59.0194 60.0276 59.1426 59.964 59.2314 59.8635C59.3201 59.7629 59.3681 59.6329 59.3658 59.4988L59.3232 57.2011C59.3198 57.0834 59.2779 56.97 59.204 56.8783C59.13 56.7867 59.028 56.7218 58.9136 56.6937C58.8897 56.6884 58.8635 56.6821 58.8374 56.6814L56.5355 56.4766C56.4312 56.4687 56.3316 56.43 56.2492 56.3655C56.1669 56.301 56.1055 56.2135 56.0728 56.1142C56.0665 56.0965 56.06 56.0791 56.0574 56.0601C56.0451 56.0045 56.0344 55.9527 56.0163 55.8975C55.8607 55.2499 55.636 54.6209 55.346 54.0213C55.2458 53.8223 55.2893 53.5793 55.4515 53.4206L56.8341 52.0372C57.0307 51.842 57.0463 51.5271 56.8721 51.3112L56.5545 50.9139L55.4423 49.5312C55.2692 49.3128 54.9572 49.2666 54.7238 49.4211L53.0238 50.5628C52.8429 50.6863 52.6069 50.6785 52.4289 50.5514C51.596 49.9536 50.6709 49.4961 49.6904 49.1969L49.6446 48.7569L49.4532 46.9517C49.4428 46.8441 49.399 46.7424 49.3279 46.6609C49.2568 46.5794 49.162 46.5223 49.0568 46.4974C49.0121 46.4861 48.9659 46.4813 48.9199 46.4834L46.6137 46.5254C46.4822 46.5294 46.3567 46.5812 46.2607 46.6711C46.1647 46.761 46.1047 46.8829 46.092 47.0138L45.9674 48.4308C45.9563 48.5482 45.9069 48.6587 45.8267 48.7452C45.7465 48.8317 45.6401 48.8893 45.5238 48.9092C44.5425 49.0659 43.5923 49.3773 42.7085 49.8318C42.4999 49.9395 42.2509 49.9022 42.0934 49.7382L40.4401 48.0851C40.3501 47.9961 40.2305 47.9432 40.104 47.9366C39.9776 47.9299 39.8531 47.97 39.7543 48.0492L37.9426 49.5048C37.8392 49.5865 37.7705 49.7042 37.7503 49.8343C37.7301 49.9645 37.76 50.0975 37.8338 50.2066L39.2473 52.3155C39.3072 52.404 39.339 52.5086 39.3386 52.6155C39.3381 52.7224 39.3055 52.8267 39.2448 52.9147C38.9772 53.3118 38.7416 53.7295 38.54 54.1638C38.4295 54.3995 38.3288 54.6397 38.2383 54.8838C38.2034 54.9767 38.1435 55.0582 38.0653 55.1193C37.9871 55.1805 37.8935 55.2188 37.795 55.2302L35.3767 55.4862C35.2417 55.5001 35.1168 55.5641 35.0265 55.6654C34.9362 55.7668 34.887 55.8983 34.8887 56.034ZM44.3319 62.3742C43.8035 62.0515 43.3082 61.6211 42.8644 61.0744C42.7688 60.9594 42.6761 60.8198 42.5857 60.6688C42.2042 60.0136 41.9213 59.1115 41.9112 58.4511C41.8438 53.3987 47.7089 51.2091 50.9611 54.9814C51.0136 55.0442 51.0665 55.1067 51.1179 55.1719C51.6023 55.7756 52.0103 56.9117 52.0291 57.6844C52.0385 58.0728 52.0116 58.4611 51.9487 58.8444C51.3238 62.5109 47.3429 64.21 44.3319 62.3742Z" fill="url(#paint2_linear_119_81)"/>
<path d="M98.8751 27.4462L98.4584 30.1329L98.4488 30.197C98.4248 30.3544 98.4597 30.5152 98.5468 30.6486C98.6339 30.7819 98.7671 30.8785 98.9209 30.9199L101.115 31.5068C101.151 31.5164 101.186 31.5287 101.218 31.5439C101.445 31.6518 101.598 31.8836 101.587 32.1395C101.547 33.6463 101.808 35.1458 102.356 36.5501C102.378 36.6089 102.391 36.6689 102.396 36.7279C102.405 36.8409 102.384 36.9543 102.336 37.0571C102.288 37.1599 102.215 37.2486 102.123 37.3146L100.568 38.4007C100.47 38.471 100.393 38.567 100.346 38.678C100.298 38.7891 100.282 38.911 100.3 39.0305C100.312 39.1022 100.335 39.1765 100.372 39.2462L101.71 41.6781C101.79 41.8233 101.922 41.9331 102.08 41.9857C102.237 42.0383 102.409 42.0299 102.56 41.9622L104.866 40.9375C104.977 40.8882 105.1 40.8716 105.221 40.8896C105.341 40.9077 105.454 40.9596 105.545 41.0393C106.329 41.7076 107.201 42.2654 108.137 42.6971L108.139 42.6992C108.26 42.7541 108.362 42.8448 108.43 42.9591C108.498 43.0734 108.53 43.2058 108.52 43.3386L108.347 45.8913L108.339 46.0199C108.328 46.1798 108.377 46.3382 108.477 46.4635C108.577 46.5887 108.721 46.6716 108.88 46.6957L111.628 47.12C111.963 47.1692 112.285 46.9624 112.373 46.635L113.03 44.1946C113.064 44.0627 113.14 43.9452 113.246 43.8589C113.351 43.7726 113.482 43.722 113.618 43.7142C114.791 43.6354 115.945 43.3752 117.039 42.9428C117.174 42.8903 117.324 42.8849 117.463 42.9273C117.602 42.9697 117.723 43.0576 117.806 43.1769L119.096 45.0138C119.19 45.1476 119.33 45.242 119.49 45.2786C119.649 45.3153 119.816 45.2917 119.959 45.2123L122.405 43.8696C122.544 43.7933 122.649 43.6676 122.7 43.5175C122.75 43.3674 122.743 43.2038 122.679 43.0589L121.48 40.3508C121.43 40.2381 121.412 40.1136 121.429 39.9914C121.446 39.8692 121.496 39.7541 121.575 39.6591C122.149 38.9687 122.64 38.2135 123.038 37.4091C123.092 37.294 123.18 37.1982 123.29 37.1342C123.401 37.0702 123.527 37.0411 123.654 37.0506L126.726 37.2603C126.888 37.2712 127.049 37.2209 127.176 37.1193C127.303 37.0178 127.388 36.8723 127.413 36.7116L127.843 33.9557C127.863 33.8142 127.837 33.6699 127.768 33.5448C127.699 33.4198 127.59 33.3209 127.459 33.2633C127.432 33.2519 127.402 33.2388 127.371 33.2327L124.662 32.506C124.539 32.4746 124.428 32.4075 124.343 32.3132C124.258 32.2188 124.203 32.1014 124.184 31.9758C124.18 31.9533 124.176 31.9311 124.177 31.9079C124.174 31.8391 124.172 31.7746 124.162 31.7049C124.112 30.8982 123.975 30.0992 123.753 29.3217C123.675 29.0629 123.778 28.7812 124.005 28.6256L125.948 27.261C126.081 27.1672 126.175 27.0275 126.211 26.8688C126.248 26.71 126.224 26.5434 126.145 26.401L125.849 25.8596L124.808 23.9736C124.647 23.6763 124.284 23.5559 123.972 23.6917L121.701 24.7009C121.459 24.8108 121.178 24.7519 120.992 24.5627C120.495 24.0554 119.952 23.5954 119.369 23.1888C118.933 22.884 118.476 22.6105 118.002 22.3702L118.039 21.8347L118.188 19.6364C118.198 19.5056 118.167 19.3749 118.099 19.2627C118.031 19.1504 117.93 19.0622 117.809 19.0104C117.758 18.9875 117.704 18.9721 117.649 18.9649L114.883 18.5323C114.725 18.5096 114.564 18.5454 114.43 18.6328C114.296 18.7201 114.199 18.8532 114.157 19.0071L113.711 20.6754C113.673 20.8134 113.591 20.9351 113.477 21.0217C113.363 21.1082 113.224 21.1548 113.081 21.1542C111.875 21.1363 110.673 21.3097 109.522 21.6681C109.25 21.753 108.96 21.6565 108.806 21.4276L107.175 19.1051C107.086 18.9798 106.954 18.8916 106.805 18.8572C106.655 18.8227 106.498 18.8445 106.363 18.9184L103.893 20.2796C103.599 20.44 103.479 20.7964 103.615 21.0957L104.864 23.913C104.917 24.0314 104.933 24.163 104.911 24.2907C104.888 24.4184 104.827 24.5363 104.736 24.6288C104.333 25.0475 103.963 25.4976 103.632 25.9748C103.45 26.2334 103.28 26.4994 103.12 26.7721C103.059 26.876 102.97 26.9609 102.864 27.0177C102.758 27.0744 102.638 27.1007 102.518 27.0937L99.573 26.8936C99.4088 26.8821 99.2461 26.9324 99.117 27.0346C98.9879 27.1369 98.9016 27.2836 98.8751 27.4462ZM108.838 37.0024C108.273 36.5061 107.771 35.8882 107.355 35.1413C107.265 34.9839 107.184 34.7976 107.107 34.5984C106.788 33.7352 106.638 32.5973 106.765 31.8059C107.741 25.7515 115.212 24.361 118.31 29.5517C118.36 29.6377 118.41 29.7235 118.458 29.8122C118.911 30.6356 119.161 32.079 119.021 33.0069C118.951 33.4731 118.838 33.9317 118.683 34.3769C117.168 38.6294 112.053 39.8275 108.838 37.0024Z" fill="url(#paint3_linear_119_81)"/>
<path d="M146.73 37.0732H54.1772C50.7235 37.0732 47.9238 39.873 47.9238 43.3266V101.219C47.9238 104.673 50.7235 107.473 54.1772 107.473H146.73C150.184 107.473 152.983 104.673 152.983 101.219V43.3266C152.983 39.873 150.184 37.0732 146.73 37.0732Z" fill="white" stroke="#E1E4E5" stroke-width="4"/>
<path d="M56.0714 44.2351C56.9274 44.2351 57.6213 43.5412 57.6213 42.6852C57.6213 41.8292 56.9274 41.1353 56.0714 41.1353C55.2154 41.1353 54.5215 41.8292 54.5215 42.6852C54.5215 43.5412 55.2154 44.2351 56.0714 44.2351Z" fill="#E1E4E5"/>
<path d="M61.4249 44.2351C62.2809 44.2351 62.9749 43.5412 62.9749 42.6852C62.9749 41.8292 62.2809 41.1353 61.4249 41.1353C60.5689 41.1353 59.875 41.8292 59.875 42.6852C59.875 43.5412 60.5689 44.2351 61.4249 44.2351Z" fill="#E1E4E5"/>
<path d="M66.7804 44.2351C67.6364 44.2351 68.3303 43.5412 68.3303 42.6852C68.3303 41.8292 67.6364 41.1353 66.7804 41.1353C65.9244 41.1353 65.2305 41.8292 65.2305 42.6852C65.2305 43.5412 65.9244 44.2351 66.7804 44.2351Z" fill="#E1E4E5"/>
<path d="M42.6431 77.4931C43.3247 81.3177 47.2942 84.6813 47.2942 84.6813C47.2942 84.6813 50.5484 80.0282 49.8668 76.2036C49.1825 72.3783 47.0146 69.5663 45.0194 69.9237C43.0245 70.2781 41.9615 73.6685 42.6431 77.4931ZM51.3828 84.1368C48.7222 86.9667 48.3941 92.1581 48.3941 92.1581C48.3941 92.1581 54.0682 91.9941 56.7296 89.1618C59.3909 86.3295 60.351 82.9116 58.8727 81.5243C57.3969 80.1376 54.0436 81.3072 51.3828 84.1368ZM48.2034 103.731C48.0835 104.395 48.0361 104.86 48.0239 104.978C48.023 104.992 48.0203 105.002 48.0214 105.008L48.0207 105.011C48.0207 105.011 48.0234 105.011 48.0241 105.009L48.0426 105.011C48.1043 105.008 48.2881 105.002 48.5659 104.986C50.0522 104.89 54.2077 104.426 56.4111 102.17C59.1246 99.3903 60.1471 95.9865 58.6976 94.5736C57.2491 93.1584 53.8741 94.2641 51.1606 97.0437C49.9459 98.2895 49.1885 100.014 48.726 101.544C48.5082 102.262 48.3336 102.992 48.2034 103.731ZM39.8907 91.1553C43.2711 93.0688 48.3935 92.1605 48.3935 92.1605C48.3935 92.1605 46.8871 86.6846 43.5065 84.7711C40.1259 82.8574 36.5776 82.735 35.5782 84.4966C34.5781 86.261 36.5101 89.2416 39.8907 91.1553Z" fill="#E1E4E5"/>
<path d="M40.2696 103.104C43.4315 105.359 48.6198 104.988 48.6198 104.988C48.6198 104.988 47.6914 99.3852 44.5294 97.1297C41.3675 94.8743 37.8491 94.3816 36.6723 96.0323C35.4956 97.6829 37.1052 100.848 40.2696 103.104Z" fill="#E1E4E5"/>
<path d="M46.625 83.1104C46.6435 83.1649 48.1403 88.4505 47.6255 101.892C47.5859 102.921 47.5367 103.95 47.4779 104.978L47.5431 104.982L48.0222 105.008L48.0228 105.006L48.0255 105.006L48.0441 105.008C48.1057 105.006 48.2895 105 48.5673 104.983C48.6361 103.778 48.689 102.633 48.7275 101.541C49.2141 88.1834 47.7352 83.0269 47.67 82.7966L46.625 83.1104ZM158.352 77.4931C157.67 81.3177 153.701 84.6813 153.701 84.6813C153.701 84.6813 150.446 80.0282 151.128 76.2036C151.812 72.3783 153.98 69.5663 155.975 69.9237C157.97 70.2781 159.033 73.6685 158.352 77.4931ZM149.612 84.1368C152.272 86.9667 152.6 92.1581 152.6 92.1581C152.6 92.1581 146.926 91.9941 144.265 89.1618C141.604 86.3295 140.644 82.9116 142.122 81.5243C143.597 80.1376 146.951 81.3072 149.612 84.1368ZM152.791 103.731C152.911 104.395 152.958 104.86 152.971 104.978C152.972 104.992 152.974 105.002 152.973 105.008L152.974 105.011C152.974 105.011 152.971 105.011 152.971 105.009L152.952 105.011C152.89 105.008 152.707 105.002 152.429 104.986C150.942 104.89 146.787 104.426 144.583 102.17C141.87 99.3903 140.848 95.9865 142.297 94.5736C143.746 93.1584 147.121 94.2641 149.834 97.0437C151.049 98.2895 151.806 100.014 152.269 101.544C152.486 102.262 152.661 102.992 152.791 103.731ZM161.104 91.1553C157.723 93.0688 152.601 92.1605 152.601 92.1605C152.601 92.1605 154.108 86.6846 157.488 84.7711C160.868 82.8574 164.417 82.735 165.416 84.4966C166.417 86.261 164.484 89.2416 161.104 91.1553Z" fill="#E1E4E5"/>
<path d="M160.723 103.104C157.561 105.359 152.373 104.988 152.373 104.988C152.373 104.988 153.302 99.3852 156.463 97.1297C159.625 94.8743 163.144 94.3816 164.32 96.0323C165.497 97.6829 163.888 100.848 160.723 103.104Z" fill="#E1E4E5"/>
<path d="M154.37 83.1104C154.351 83.1649 152.854 88.4505 153.369 101.892C153.406 102.876 153.456 103.907 153.517 104.978L153.451 104.982L152.972 105.008L152.972 105.006L152.969 105.006L152.95 105.008C152.889 105.006 152.705 105 152.427 104.983C152.361 103.836 152.308 102.689 152.267 101.541C151.78 88.1834 153.259 83.0269 153.325 82.7966L154.37 83.1104ZM137.207 89.1277C136.806 91.3746 134.474 93.3507 134.474 93.3507C134.474 93.3507 132.562 90.6171 132.963 88.3699C133.365 86.1225 134.638 84.4705 135.811 84.6804C136.983 84.8888 137.607 86.8805 137.207 89.1277ZM132.072 93.0309C133.635 94.6934 133.828 97.7434 133.828 97.7434C133.828 97.7434 130.494 97.6472 128.931 95.9831C127.367 94.3191 126.803 92.3111 127.672 91.4959C128.539 90.6814 130.509 91.3684 132.072 93.0309ZM133.94 104.543C134.01 104.933 134.038 105.206 134.046 105.276C134.046 105.283 134.048 105.29 134.047 105.293L134.047 105.295C134.047 105.295 134.046 105.295 134.045 105.293L134.034 105.295C133.998 105.293 133.89 105.289 133.727 105.28C132.854 105.223 130.412 104.951 129.118 103.626C127.524 101.993 126.923 99.9926 127.775 99.1627C128.625 98.331 130.608 98.9807 132.203 100.614C132.916 101.346 133.361 102.359 133.633 103.258C133.761 103.68 133.864 104.109 133.94 104.543ZM138.824 97.1543C136.838 98.2786 133.828 97.745 133.828 97.745C133.828 97.745 134.713 94.5277 136.699 93.4034C138.686 92.2791 140.77 92.2072 141.357 93.2422C141.945 94.2789 140.81 96.03 138.824 97.1543Z" fill="#E1E4E5"/>
<path d="M138.601 104.174C136.744 105.499 133.695 105.281 133.695 105.281C133.695 105.281 134.241 101.989 136.099 100.664C137.956 99.339 140.023 99.0496 140.715 100.02C141.406 100.989 140.46 102.848 138.601 104.174Z" fill="#E1E4E5"/>
<path d="M134.868 92.4279C134.858 92.4598 133.978 95.5653 134.281 103.462C134.302 104.041 134.332 104.646 134.367 105.275L134.329 105.278L134.048 105.293L134.047 105.291L134.046 105.292L134.035 105.293C133.998 105.292 133.891 105.288 133.727 105.278C133.687 104.571 133.656 103.897 133.633 103.256C133.347 95.4083 134.216 92.3788 134.255 92.2434L134.868 92.4279ZM73.1111 86.671C72.7107 88.918 70.3786 90.894 70.3786 90.894C70.3786 90.894 68.4667 88.1604 68.8671 85.9133C69.2691 83.6659 70.5428 82.0139 71.7151 82.2238C72.8871 82.4322 73.5116 84.4239 73.1111 86.671ZM67.9762 90.5742C69.5394 92.2367 69.7321 95.2868 69.7321 95.2868C69.7321 95.2868 66.3986 95.1905 64.8348 93.5265C63.2713 91.8624 62.7074 89.8544 63.5759 89.0393C64.4429 88.2248 66.4129 88.9117 67.9762 90.5742ZM69.8444 102.086C69.9148 102.476 69.9425 102.749 69.9498 102.819C69.9503 102.827 69.9519 102.833 69.9512 102.836L69.9516 102.838C69.9516 102.838 69.9501 102.838 69.9496 102.837L69.9387 102.838C69.9025 102.836 69.7946 102.833 69.6314 102.823C68.7581 102.767 66.3167 102.495 65.0222 101.169C63.4281 99.5359 62.8273 97.536 63.6789 96.7061C64.5298 95.8744 66.5127 96.5241 68.1069 98.1573C68.8204 98.8892 69.2655 99.9022 69.5373 100.801C69.6653 101.223 69.7678 101.652 69.8444 102.086ZM74.7281 94.6976C72.742 95.8219 69.7325 95.2884 69.7325 95.2884C69.7325 95.2884 70.6176 92.071 72.6037 90.9468C74.5898 89.8225 76.6746 89.7506 77.2618 90.7855C77.8494 91.8222 76.7142 93.5734 74.7281 94.6976Z" fill="#E1E4E5"/>
<path d="M74.5036 101.718C72.6459 103.043 69.5977 102.824 69.5977 102.824C69.5977 102.824 70.1433 99.5328 72.0009 98.2078C73.8586 96.8825 75.9256 96.5931 76.617 97.563C77.3082 98.5327 76.3626 100.392 74.5036 101.718Z" fill="#E1E4E5"/>
<path d="M70.7712 89.9711C70.7605 90.003 69.881 93.1085 70.1834 101.006C70.2053 101.584 70.2346 102.189 70.2703 102.819L70.2319 102.821L69.9505 102.836L69.95 102.835L69.9485 102.835L69.9375 102.836C69.9014 102.835 69.7935 102.831 69.6302 102.821C69.5898 102.114 69.5588 101.441 69.5362 100.799C69.2501 92.9515 70.1191 89.922 70.1575 89.7866L70.7712 89.9711Z" fill="#E1E4E5"/>
<path opacity="0.2" d="M122.041 56.95H143.715M55.1641 56.95H105.942M55.1641 68.1445H69.781M83.0294 68.34H143.715M122.041 79.5066H143.715M55.1641 79.5066H105.942M55.1641 90.4779H69.781M83.0294 90.6733H143.715" stroke="#E1E4E5" stroke-width="26.889" stroke-miterlimit="10" stroke-linecap="round" stroke-linejoin="round"/>
<path d="M116.795 67.9621C116.795 59.0114 109.515 51.7515 100.538 51.7515C91.5618 51.7515 84.2443 59.0665 84.2814 68.017C84.2997 72.465 86.106 76.4899 89.0183 79.4122C91.2853 81.6913 92.9628 84.485 93.7923 87.5911L95.1008 92.4247H105.755L106.989 87.8484C107.856 84.6871 109.57 81.8199 111.911 79.5225C114.934 76.5636 116.795 72.4833 116.795 67.9621Z" fill="#C40A83"/>
<path d="M100.465 98.0432C97.6504 98.0432 95.3633 95.7609 95.3633 92.9579V92.1179H105.566V92.9579C105.566 95.7784 103.28 98.0432 100.465 98.0432Z" fill="white" stroke="#E1E4E5" stroke-width="4"/>
<path d="M106.049 94.2445H94.8614C94.6218 94.2445 94.4375 94.0607 94.4375 93.8217C94.4375 93.5827 94.6218 93.3989 94.8614 93.3989H106.049C106.289 93.3989 106.474 93.5827 106.474 93.8217C106.474 94.0421 106.271 94.2445 106.049 94.2445ZM106.123 96.0456H94.9351C94.6954 96.0456 94.5112 95.8618 94.5112 95.6229C94.5112 95.3839 94.6954 95.2001 94.9351 95.2001H106.123C106.363 95.2001 106.547 95.3839 106.547 95.6229C106.547 95.8433 106.363 96.0456 106.123 96.0456Z" fill="#E1E4E5"/>
<path d="M80.7963 67.2452H76.5384C76.4296 67.2459 76.3216 67.2249 76.2209 67.1836C76.1201 67.1423 76.0285 67.0814 75.9514 67.0046C75.8743 66.9277 75.8132 66.8363 75.7716 66.7356C75.73 66.635 75.7087 66.5271 75.709 66.4182C75.7087 66.3093 75.73 66.2015 75.7716 66.1008C75.8132 66.0002 75.8743 65.9088 75.9514 65.8319C76.0285 65.755 76.1201 65.6942 76.2209 65.6529C76.3216 65.6116 76.4296 65.5906 76.5384 65.5912H80.7963C80.9052 65.5906 81.0131 65.6116 81.1139 65.6529C81.2146 65.6942 81.3062 65.755 81.3833 65.8319C81.4604 65.9088 81.5216 66.0002 81.5632 66.1008C81.6048 66.2015 81.6261 66.3093 81.6258 66.4182C81.6261 66.5271 81.6048 66.635 81.5632 66.7356C81.5216 66.8363 81.4604 66.9277 81.3833 67.0046C81.3062 67.0814 81.2146 67.1423 81.1139 67.1836C81.0131 67.2249 80.9052 67.2459 80.7963 67.2452ZM82.1044 59.618L78.3258 57.6513C77.9202 57.4492 77.7728 56.9529 77.9756 56.5485C78.1784 56.1442 78.676 55.9973 79.0815 56.1994L82.8601 58.1659C83.2655 58.3682 83.4131 58.8644 83.2103 59.2687C83.0075 59.6731 82.5099 59.8384 82.1044 59.618ZM86.7124 53.3137L83.6896 50.2996C83.3762 49.9872 83.3762 49.4541 83.6896 49.1416C84.0029 48.8292 84.5374 48.8292 84.8507 49.1416L87.8737 52.156C88.1871 52.4684 88.1871 53.0013 87.8737 53.3137C87.5419 53.6262 87.0257 53.6262 86.7124 53.3137ZM91.9283 49.3071L90.4539 45.3188C90.3065 44.8961 90.5091 44.4184 90.9332 44.2712C91.3571 44.1242 91.8363 44.3263 91.9837 44.7491L93.4582 48.7374C93.6241 49.1785 93.403 49.6379 92.9791 49.8034C92.555 49.9503 92.076 49.7299 91.9283 49.3071ZM120.424 66.6941H124.682C124.791 66.6947 124.899 66.6737 125 66.6324C125.101 66.5911 125.192 66.5303 125.269 66.4534C125.346 66.3765 125.407 66.2851 125.449 66.1845C125.491 66.0838 125.512 65.976 125.512 65.8671C125.512 65.7582 125.491 65.6503 125.449 65.5496C125.407 65.449 125.346 65.3576 125.269 65.2807C125.192 65.2038 125.101 65.1429 125 65.1016C124.899 65.0602 124.791 65.0392 124.682 65.0398H120.424C120.315 65.0392 120.207 65.0602 120.107 65.1016C120.006 65.1429 119.914 65.2038 119.837 65.2807C119.76 65.3576 119.699 65.449 119.657 65.5496C119.616 65.6503 119.595 65.7582 119.595 65.8671C119.613 66.3265 119.982 66.6941 120.424 66.6941ZM119.117 59.0851L122.896 57.1184C123.301 56.9163 123.448 56.4201 123.246 56.0156C123.043 55.6114 122.545 55.4644 122.14 55.6665L118.361 57.633C117.956 57.8353 117.808 58.3316 118.011 58.7358C118.232 59.1403 118.712 59.2872 119.117 59.0851ZM114.509 52.7625L117.532 49.7484C117.845 49.436 117.845 48.9029 117.532 48.5904C117.219 48.278 116.684 48.278 116.371 48.5904L113.348 51.6045C113.035 51.917 113.035 52.4501 113.348 52.7625C113.68 53.0933 114.196 53.0933 114.509 52.7625ZM109.293 48.7742L110.767 44.786C110.915 44.3632 110.712 43.8855 110.288 43.7383C109.864 43.5913 109.385 43.7935 109.237 44.2162L107.763 48.2045C107.615 48.6273 107.818 49.105 108.242 49.2522C108.666 49.4174 109.145 49.197 109.293 48.7742ZM99.7066 47.5059V43.2604C99.7063 43.1515 99.7276 43.0436 99.7692 42.943C99.8108 42.8423 99.8719 42.7509 99.949 42.6741C100.026 42.5972 100.118 42.5363 100.218 42.495C100.319 42.4537 100.427 42.4327 100.536 42.4334C100.645 42.4327 100.753 42.4537 100.854 42.495C100.954 42.5363 101.046 42.5972 101.123 42.6741C101.2 42.7509 101.261 42.8423 101.303 42.943C101.345 43.0436 101.366 43.1515 101.366 43.2604V47.5059C101.366 47.6148 101.345 47.7227 101.303 47.8234C101.261 47.924 101.2 48.0154 101.123 48.0923C101.046 48.1692 100.954 48.2301 100.854 48.2714C100.753 48.3128 100.645 48.3338 100.536 48.3332C100.427 48.3338 100.319 48.3128 100.218 48.2714C100.118 48.2301 100.026 48.1692 99.949 48.0923C99.8719 48.0154 99.8108 47.924 99.7692 47.8234C99.7276 47.7227 99.7063 47.6148 99.7066 47.5059Z" fill="#C40A83"/>
<path d="M98.3209 78.6385C98.0672 76.2013 97.648 74.0245 96.9811 72.7276C96.3928 71.5837 95.4644 70.7571 94.5195 70.4862C94.3161 70.4287 94.1058 70.3988 93.8944 70.3973C93.5766 70.3973 93.2863 70.4741 93.029 70.6253C92.6993 70.821 92.4188 71.214 92.2451 71.7342C92.0727 72.2505 92.0137 72.8689 92.1064 73.4809L98.3209 78.6385ZM98.3209 78.6385C94.2254 77.9614 92.4336 75.6331 92.1064 73.4809L98.3209 78.6385ZM102.287 91.2421L102.297 91.455H103.077L103.068 91.2229L103.068 91.2133C103.056 90.9214 102.802 84.7181 103.279 79.3798C107.808 78.697 109.895 76.0977 110.273 73.591C110.385 72.8475 110.314 72.1036 110.095 71.4724C109.878 70.8438 109.507 70.3086 109.006 70.0109C108.409 69.6541 107.694 69.5886 106.952 69.8008C105.791 70.1311 104.715 71.1147 104.048 72.404V72.4044C103.301 73.8554 102.863 76.214 102.607 78.7455C102.018 78.8089 101.427 78.8398 100.835 78.8382C100.204 78.8382 99.6151 78.8065 99.063 78.7455C98.8066 76.2107 98.3684 73.8554 97.6212 72.4044L97.6209 72.404C96.9547 71.1147 95.8783 70.1313 94.7174 69.8008C93.9755 69.5888 93.2613 69.6541 92.6634 70.0107C92.1604 70.3084 91.7902 70.8438 91.5729 71.4724C91.3549 72.1038 91.2843 72.8477 91.3964 73.591C91.7747 76.0943 93.8618 78.6935 98.391 79.3798C98.8674 84.7179 98.6139 90.9212 98.602 91.2133L98.6016 91.2229L98.5927 91.455H99.3728L99.3828 91.2421C99.4009 90.8596 99.6012 84.7999 99.1343 79.4669C99.67 79.5185 100.24 79.5477 100.839 79.5477C101.436 79.5477 102.006 79.5211 102.542 79.468C102.075 84.8007 102.269 90.8627 102.287 91.2421ZM103.352 78.6421C103.606 76.2046 104.025 74.0251 104.692 72.7316C105.285 71.5861 106.21 70.7564 107.154 70.4895L107.156 70.4893C107.358 70.4292 107.568 70.3982 107.779 70.3973C108.097 70.3973 108.387 70.4741 108.643 70.6282L108.644 70.6289C108.974 70.8243 109.254 71.2174 109.428 71.7378C109.601 72.2541 109.66 72.8725 109.567 73.4844C109.24 75.6336 107.448 77.965 103.352 78.6421Z" fill="white"/>
<path d="M98.3209 78.6385C98.0672 76.2013 97.648 74.0245 96.9811 72.7276C96.3928 71.5837 95.4644 70.7571 94.5195 70.4862C94.3161 70.4287 94.1058 70.3988 93.8944 70.3973C93.5766 70.3973 93.2863 70.4741 93.029 70.6253C92.6993 70.821 92.4188 71.214 92.2451 71.7342C92.0727 72.2505 92.0137 72.8689 92.1064 73.4809M98.3209 78.6385L92.1064 73.4809M98.3209 78.6385C94.2254 77.9614 92.4336 75.6331 92.1064 73.4809M102.287 91.2421L102.297 91.455H103.077L103.068 91.2229L103.068 91.2133C103.056 90.9214 102.802 84.7181 103.279 79.3798C107.808 78.697 109.895 76.0977 110.273 73.591C110.385 72.8475 110.314 72.1036 110.095 71.4724C109.878 70.8438 109.507 70.3086 109.006 70.0109C108.409 69.6541 107.694 69.5886 106.952 69.8008C105.791 70.1311 104.715 71.1147 104.048 72.404V72.4044C103.301 73.8554 102.863 76.214 102.607 78.7455C102.018 78.8089 101.427 78.8398 100.835 78.8382C100.204 78.8382 99.6151 78.8065 99.063 78.7455C98.8066 76.2107 98.3684 73.8554 97.6212 72.4044L97.6209 72.404C96.9547 71.1147 95.8783 70.1313 94.7174 69.8008C93.9755 69.5888 93.2613 69.6541 92.6634 70.0107C92.1604 70.3084 91.7902 70.8438 91.5729 71.4724C91.3549 72.1038 91.2843 72.8477 91.3964 73.591C91.7747 76.0943 93.8618 78.6935 98.391 79.3798C98.8674 84.7179 98.6139 90.9212 98.602 91.2133L98.6016 91.2229L98.5927 91.455H99.3728L99.3828 91.2421C99.4009 90.8596 99.6012 84.7999 99.1343 79.4669C99.67 79.5185 100.24 79.5477 100.839 79.5477C101.436 79.5477 102.006 79.5211 102.542 79.468C102.075 84.8007 102.269 90.8627 102.287 91.2421ZM103.352 78.6421C103.606 76.2046 104.025 74.0251 104.692 72.7316C105.285 71.5861 106.21 70.7564 107.154 70.4895L107.156 70.4893C107.358 70.4292 107.568 70.3982 107.779 70.3973C108.097 70.3973 108.387 70.4741 108.643 70.6282L108.644 70.6289C108.974 70.8243 109.254 71.2174 109.428 71.7378C109.601 72.2541 109.66 72.8725 109.567 73.4844C109.24 75.6336 107.448 77.965 103.352 78.6421Z" stroke="white" stroke-width="2"/>
<path d="M113.348 67.2234C112.919 67.2234 112.573 66.8734 112.573 66.4401C112.573 61.5862 109.327 57.3679 104.68 56.1768C104.48 56.1246 104.309 55.9953 104.204 55.8172C104.099 55.6392 104.069 55.4269 104.121 55.2268C104.225 54.8062 104.648 54.5525 105.061 54.6617C110.397 56.0261 114.123 60.8702 114.123 66.4401C114.123 66.8734 113.777 67.2234 113.348 67.2234ZM102.615 55.8367C103.043 55.8367 103.39 55.4858 103.39 55.0533C103.39 54.6207 103.043 54.27 102.615 54.27C102.187 54.27 101.84 54.6207 101.84 55.0533C101.84 55.4858 102.187 55.8367 102.615 55.8367Z" fill="white"/>
<path d="M165.944 68.5309C163.091 71.0032 158.205 70.0406 158.205 70.0406C158.205 70.0406 157.948 65.0704 160.803 62.6001C163.656 60.1278 168.54 61.0885 168.54 61.0885C168.54 61.0885 168.797 66.0588 165.944 68.5309Z" fill="url(#paint4_linear_119_81)"/>
<path d="M37.8093 74.7061C39.0068 76.4704 38.1432 79.1475 38.1432 79.1475C38.1432 79.1475 35.3382 78.9624 34.1415 77.1971C32.9438 75.4328 33.8063 72.7568 33.8063 72.7568C33.8063 72.7568 36.6116 72.942 37.8093 74.7061Z" fill="url(#paint5_linear_119_81)"/>
<path d="M94.4238 110.099L24.8027 109.94C25.2074 109.704 25.6154 109.475 26.0266 109.251C27.692 108.342 30.1266 107.128 33.1956 105.909C39.335 103.47 48.0042 101.016 58.129 100.948C68.3003 100.88 77.4399 103.251 84.2297 105.707C87.6235 106.934 90.4274 108.181 92.4772 109.153C93.2303 109.51 93.8815 109.83 94.4238 110.099ZM174.432 108.982L119.99 108.861C120.184 108.753 120.397 108.636 120.629 108.512C121.948 107.807 123.877 106.864 126.309 105.917C131.173 104.023 138.042 102.117 146.063 102.064C154.121 102.011 161.364 103.853 166.746 105.761C168.966 106.549 171.147 107.443 173.282 108.438C173.707 108.635 174.091 108.818 174.432 108.982Z" fill="white" stroke="#E1E4E5" stroke-width="4"/>
<defs>
<linearGradient id="paint0_linear_119_81" x1="135.111" y1="19.8261" x2="176.547" y2="85.9328" gradientUnits="userSpaceOnUse">
<stop stop-color="white"/>
<stop offset="1" stop-color="#EEEEEE"/>
</linearGradient>
<linearGradient id="paint1_linear_119_81" x1="126.547" y1="15.0921" x2="152.125" y2="55.8995" gradientUnits="userSpaceOnUse">
<stop stop-color="white"/>
<stop offset="1" stop-color="#EEEEEE"/>
</linearGradient>
<linearGradient id="paint2_linear_119_81" x1="33.1684" y1="36.1227" x2="67.3087" y2="90.5895" gradientUnits="userSpaceOnUse">
<stop stop-color="white"/>
<stop offset="1" stop-color="#EEEEEE"/>
</linearGradient>
<linearGradient id="paint3_linear_119_81" x1="100.986" y1="3.28172" x2="130.402" y2="75.5435" gradientUnits="userSpaceOnUse">
<stop stop-color="white"/>
<stop offset="1" stop-color="#EEEEEE"/>
</linearGradient>
<linearGradient id="paint4_linear_119_81" x1="154.685" y1="76.8534" x2="176.154" y2="48.4992" gradientUnits="userSpaceOnUse">
<stop stop-color="white"/>
<stop offset="1" stop-color="#EEEEEE"/>
</linearGradient>
<linearGradient id="paint5_linear_119_81" x1="41.7317" y1="81.5736" x2="27.2488" y2="67.6519" gradientUnits="userSpaceOnUse">
<stop stop-color="white"/>
<stop offset="1" stop-color="#EEEEEE"/>
</linearGradient>
</defs>
</svg>
