<svg width="91" height="91" viewBox="0 0 91 91" fill="none" xmlns="http://www.w3.org/2000/svg">
<path d="M85.0484 58.6875V7.94022C85.0438 5.83747 84.2071 3.82202 82.7212 2.33422C81.2353 0.846415 79.2209 0.0072232 77.1181 0L18.7066 0C16.6022 0.0045985 14.5852 0.842632 13.0971 2.33072C11.6091 3.8188 10.771 5.83576 10.7664 7.94022V10.7652H7.94146C6.89858 10.7652 5.8659 10.9706 4.9024 11.3697C3.93889 11.7688 3.06343 12.3537 2.326 13.0912C1.58857 13.8286 1.0036 14.7041 0.604508 15.6676C0.205412 16.6311 0 17.6638 0 18.7066C0 19.7495 0.205412 20.7822 0.604508 21.7457C1.0036 22.7092 1.58857 23.5847 2.326 24.3221C3.06343 25.0595 3.93889 25.6445 4.9024 26.0436C5.8659 26.4427 6.89858 26.6481 7.94146 26.6481H10.7664V37.2367H7.94146C5.83526 37.2367 3.81531 38.0734 2.326 39.5627C0.836688 41.052 1.67329e-07 43.072 1.67329e-07 45.1782C1.67329e-07 47.2844 0.836688 49.3043 2.326 50.7937C3.81531 52.283 5.83526 53.1197 7.94146 53.1197H10.7664V63.7083H7.94146C5.83526 63.7083 3.81531 64.545 2.326 66.0343C0.836688 67.5236 1.67329e-07 69.5435 1.67329e-07 71.6497C1.67329e-07 73.7559 0.836688 75.7759 2.326 77.2652C3.81531 78.7545 5.83526 79.5912 7.94146 79.5912H10.7664V82.2371C10.7678 84.3483 11.5868 86.3768 13.0518 87.897C13.7774 88.6706 14.6536 89.2876 15.6265 89.7101C16.5994 90.1326 17.6484 90.3517 18.7091 90.3539H71.8263C75.4828 90.3273 79.0509 89.2264 82.0868 87.1882C85.1227 85.1499 87.4925 82.2642 88.9014 78.8899C90.3103 75.5156 90.6963 71.8015 90.0112 68.2096C89.3261 64.6177 87.6003 61.3064 85.0484 58.6875ZM7.94146 21.3538C7.2394 21.3538 6.56608 21.0749 6.06964 20.5785C5.5732 20.082 5.29431 19.4087 5.29431 18.7066C5.29431 18.0046 5.5732 17.3313 6.06964 16.8348C6.56608 16.3384 7.2394 16.0595 7.94146 16.0595H13.4123C14.1144 16.0595 14.7877 16.3384 15.2842 16.8348C15.7806 17.3313 16.0595 18.0046 16.0595 18.7066C16.0595 19.4087 15.7806 20.082 15.2842 20.5785C14.7877 21.0749 14.1144 21.3538 13.4123 21.3538H7.94146ZM7.94146 47.8253C7.2394 47.8253 6.56608 47.5464 6.06964 47.05C5.5732 46.5536 5.29431 45.8803 5.29431 45.1782C5.29431 44.4761 5.5732 43.8028 6.06964 43.3064C6.56608 42.8099 7.2394 42.531 7.94146 42.531H13.4123C14.1144 42.531 14.7877 42.8099 15.2842 43.3064C15.7806 43.8028 16.0595 44.4761 16.0595 45.1782C16.0595 45.8803 15.7806 46.5536 15.2842 47.05C14.7877 47.5464 14.1144 47.8253 13.4123 47.8253H7.94146ZM13.4123 74.2969H7.94146C7.2394 74.2969 6.56608 74.018 6.06964 73.5216C5.5732 73.0251 5.29431 72.3518 5.29431 71.6497C5.29431 70.9477 5.5732 70.2744 6.06964 69.7779C6.56608 69.2815 7.2394 69.0026 7.94146 69.0026H13.4123C14.1144 69.0026 14.7877 69.2815 15.2842 69.7779C15.7806 70.2744 16.0595 70.9477 16.0595 71.6497C16.0595 72.3518 15.7806 73.0251 15.2842 73.5216C14.7877 74.018 14.1144 74.2969 13.4123 74.2969ZM18.7066 85.0471C17.9882 85.0045 17.3135 84.6881 16.8213 84.1631C16.3291 83.6381 16.0569 82.9443 16.0607 82.2247V79.1311C17.609 78.5839 18.9495 77.5701 19.8977 76.2294C20.8458 74.8886 21.355 73.2869 21.355 71.6448C21.355 70.0026 20.8458 68.4009 19.8977 67.0601C18.9495 65.7194 17.609 64.7056 16.0607 64.1584V52.6621C17.609 52.1149 18.9495 51.1011 19.8977 49.7603C20.8458 48.4196 21.355 46.8178 21.355 45.1757C21.355 43.5336 20.8458 41.9318 19.8977 40.5911C18.9495 39.2503 17.609 38.2365 16.0607 37.6893V26.1905C17.609 25.6433 18.9495 24.6295 19.8977 23.2888C20.8458 21.948 21.355 20.3463 21.355 18.7042C21.355 17.062 20.8458 15.4603 19.8977 14.1195C18.9495 12.7788 17.609 11.765 16.0607 11.2178V7.94022C16.062 7.23889 16.3412 6.56665 16.8372 6.07073C17.3331 5.57481 18.0053 5.29562 18.7066 5.29431H77.1181C77.8195 5.29562 78.4917 5.57481 78.9876 6.07073C79.4835 6.56665 79.7627 7.23889 79.764 7.94022V54.9076C76.94 53.567 73.8227 52.9627 70.7022 53.1511C67.5818 53.3395 64.5598 54.3145 61.9176 55.9852C59.2755 57.6559 57.099 59.968 55.5909 62.7063C54.0828 65.4446 53.2921 68.5199 53.2925 71.646C53.291 74.1422 53.7882 76.6134 54.7551 78.9147C55.7219 81.2161 57.1388 83.301 58.9225 85.0471H18.7066ZM71.8238 85.0471C69.1877 85.0668 66.605 84.304 64.4026 82.8553C62.2001 81.4067 60.4769 79.3372 59.4509 76.9089C58.425 74.4805 58.1425 71.8024 58.6391 69.2135C59.1357 66.6245 60.3891 64.241 62.2408 62.3646C64.0924 60.4882 66.4591 59.2033 69.0412 58.6724C71.6234 58.1415 74.305 58.3885 76.7468 59.3822C79.1885 60.3758 81.2806 62.0714 82.7584 64.2545C84.2361 66.4375 85.0331 69.0099 85.0484 71.646C85.065 75.1747 83.6826 78.5663 81.204 81.078C78.7254 83.5897 75.3525 85.0169 71.8238 85.0471Z" fill="#C40A83"/>
<path d="M71.8269 21.3538H55.944C55.2419 21.3538 54.5686 21.6327 54.0722 22.1291C53.5757 22.6255 53.2969 23.2988 53.2969 24.0009C53.2969 24.703 53.5757 25.3763 54.0722 25.8727C54.5686 26.3692 55.2419 26.6481 55.944 26.6481H71.8269C72.529 26.6481 73.2023 26.3692 73.6987 25.8727C74.1952 25.3763 74.4741 24.703 74.4741 24.0009C74.4741 23.2988 74.1952 22.6255 73.6987 22.1291C73.2023 21.6327 72.529 21.3538 71.8269 21.3538Z" fill="#C40A83"/>
<path d="M71.8269 42.5288H55.944C55.2419 42.5288 54.5686 42.8077 54.0722 43.3041C53.5757 43.8006 53.2969 44.4739 53.2969 45.176C53.2969 45.878 53.5757 46.5513 54.0722 47.0478C54.5686 47.5442 55.2419 47.8231 55.944 47.8231H71.8269C72.529 47.8231 73.2023 47.5442 73.6987 47.0478C74.1952 46.5513 74.4741 45.878 74.4741 45.176C74.4741 44.4739 74.1952 43.8006 73.6987 43.3041C73.2023 42.8077 72.529 42.5288 71.8269 42.5288Z" fill="#C40A83"/>
<path d="M77.116 69.0001H74.4701V66.3517C74.4701 65.6496 74.1912 64.9763 73.6948 64.4799C73.1984 63.9834 72.525 63.7046 71.823 63.7046C71.1209 63.7046 70.4476 63.9834 69.9511 64.4799C69.4547 64.9763 69.1758 65.6496 69.1758 66.3517V71.646C69.1758 72.348 69.4545 73.0212 69.9506 73.5178C70.4467 74.0144 71.1197 74.2938 71.8217 74.2944H77.116C77.8181 74.2944 78.4914 74.0156 78.9878 73.5191C79.4842 73.0227 79.7632 72.3494 79.7632 71.6473C79.7632 70.9452 79.4842 70.2719 78.9878 69.7755C78.4914 69.279 77.8181 69.0001 77.116 69.0001Z" fill="#C40A83"/>
<path d="M47.0484 16.8329C46.8027 16.5871 46.511 16.3922 46.1899 16.2591C45.8688 16.1261 45.5247 16.0576 45.1771 16.0576C44.8296 16.0576 44.4855 16.1261 44.1644 16.2591C43.8433 16.3922 43.5516 16.5871 43.3059 16.8329L34.5898 25.549L30.422 21.3837C29.9257 20.8874 29.2526 20.6086 28.5507 20.6086C27.8488 20.6086 27.1757 20.8874 26.6794 21.3837C26.1831 21.88 25.9043 22.5531 25.9043 23.255C25.9043 23.9569 26.1831 24.63 26.6794 25.1263L32.7172 31.1641C32.9629 31.4099 33.2547 31.6049 33.5758 31.7379C33.8969 31.871 34.241 31.9394 34.5885 31.9394C34.9361 31.9394 35.2802 31.871 35.6013 31.7379C35.9224 31.6049 36.2141 31.4099 36.4598 31.1641L47.0484 20.5755C47.2942 20.3298 47.4892 20.0381 47.6223 19.717C47.7553 19.3959 47.8238 19.0518 47.8238 18.7042C47.8238 18.3567 47.7553 18.0125 47.6223 17.6914C47.4892 17.3704 47.2942 17.0786 47.0484 16.8329Z" fill="#C40A83"/>
<path d="M47.0484 38.0075C46.8027 37.7617 46.511 37.5667 46.1899 37.4337C45.8688 37.3006 45.5247 37.2322 45.1771 37.2322C44.8296 37.2322 44.4855 37.3006 44.1644 37.4337C43.8433 37.5667 43.5516 37.7617 43.3059 38.0075L34.5898 46.7236L30.422 42.5558C29.9257 42.0595 29.2526 41.7807 28.5507 41.7807C27.8488 41.7807 27.1757 42.0595 26.6794 42.5558C26.1831 43.0521 25.9043 43.7252 25.9043 44.4271C25.9043 45.1289 26.1831 45.8021 26.6794 46.2984L32.7172 52.3362C32.9629 52.582 33.2547 52.777 33.5758 52.91C33.8969 53.043 34.241 53.1115 34.5885 53.1115C34.9361 53.1115 35.2802 53.043 35.6013 52.91C35.9224 52.777 36.2141 52.582 36.4598 52.3362L47.0484 41.7476C47.5441 41.2515 47.8225 40.5788 47.8225 39.8775C47.8225 39.1762 47.5441 38.5036 47.0484 38.0075Z" fill="#C40A83"/>
<path d="M47.0484 59.185C46.8027 58.9392 46.511 58.7442 46.1899 58.6112C45.8688 58.4781 45.5247 58.4097 45.1771 58.4097C44.8296 58.4097 44.4855 58.4781 44.1644 58.6112C43.8433 58.7442 43.5516 58.9392 43.3059 59.185L34.5898 67.9011L30.422 63.7333C29.9257 63.237 29.2526 62.9581 28.5507 62.9581C27.8488 62.9581 27.1757 63.237 26.6794 63.7333C26.1831 64.2296 25.9043 64.9026 25.9043 65.6045C25.9043 66.3064 26.1831 66.9795 26.6794 67.4758L32.7172 73.5136C32.9629 73.7594 33.2547 73.9544 33.5758 74.0875C33.8969 74.2205 34.241 74.2889 34.5885 74.2889C34.9361 74.2889 35.2802 74.2205 35.6013 74.0875C35.9224 73.9544 36.2141 73.7594 36.4598 73.5136L47.0484 62.925C47.5441 62.4289 47.8225 61.7563 47.8225 61.055C47.8225 60.3537 47.5441 59.6811 47.0484 59.185Z" fill="#C40A83"/>
</svg>
