<svg width="176" height="118" viewBox="0 0 176 118" fill="none" xmlns="http://www.w3.org/2000/svg">
<path d="M72.0571 68.6507C74.0827 76.1608 93.3535 86.3973 109.208 74.971C116.581 69.6562 114.476 65.601 118.873 57.8741C121.493 53.2688 126.011 48.9435 125.892 43.5542C125.791 38.9021 123.51 34.6234 120.309 32.4109C113.111 27.435 101.491 26.2511 94.951 40.0319C88.4114 53.8128 66.8352 49.2812 72.0571 68.6507Z" fill="url(#paint0_linear_119_51)"/>
<path d="M98.56 36.886C89.9676 42.0422 81.0417 47.613 72.1867 48.3961C63.052 49.206 62.7782 46.1107 63.9939 41.916C65.2099 37.7213 71.5747 29.3148 83.9637 28.3873C96.356 27.4592 106.6 32.0598 98.56 36.886Z" fill="url(#paint1_linear_119_51)"/>
<path d="M88.1643 27.5483L85.5781 32.0866L85.5165 32.1946C85.2051 32.7494 85.3542 33.4477 85.8628 33.8196L89.3754 36.3901C89.434 36.4326 89.4866 36.4788 89.5355 36.5279C89.867 36.8788 89.9786 37.4003 89.785 37.8525C88.6798 40.535 88.115 43.4048 88.1303 46.3066C88.1284 46.4239 88.1118 46.5406 88.0808 46.6537C87.9603 47.0712 87.6201 47.4067 87.1902 47.5181L83.6712 48.394C83.2087 48.513 82.8612 48.891 82.7611 49.3396C82.7349 49.4769 82.7231 49.6263 82.7429 49.7772L83.4614 55.0693C83.548 55.7191 84.1251 56.2031 84.7837 56.1667L89.6003 55.9193C89.8326 55.9075 90.0636 55.9626 90.2659 56.0781C90.4683 56.1937 90.6337 56.3649 90.7427 56.5716C91.0741 57.1762 91.4254 57.7672 91.8141 58.3475C92.5289 59.4156 93.3371 60.4174 94.229 61.341L94.233 61.3461C94.5988 61.7251 94.6953 62.2803 94.4747 62.7578L92.4114 67.2243L92.3101 67.4498C92.04 68.021 92.2549 68.7191 92.8095 69.0371L97.4188 71.7006C97.9823 72.0208 98.6994 71.8713 99.0804 71.343L101.926 67.4133C102.242 66.9755 102.801 66.7902 103.305 66.956C105.451 67.6221 107.689 67.9574 109.938 67.9342C110.216 67.9337 110.486 68.0271 110.705 68.1994C110.924 68.3716 111.08 68.6129 111.146 68.8845L112.19 73.0763C112.266 73.3815 112.451 73.6477 112.71 73.8236C112.969 73.9996 113.284 74.0728 113.594 74.0291L118.879 73.3072C119.504 73.22 119.957 72.6658 119.924 72.0394L119.642 66.3456C119.615 65.8627 119.867 65.4082 120.287 65.1701C120.809 64.8767 121.318 64.5612 121.814 64.2243C122.741 63.5971 123.619 62.8998 124.441 62.1385C124.804 61.7955 125.336 61.703 125.787 61.9208L131.123 64.42C131.405 64.5516 131.726 64.5721 132.023 64.4776C132.319 64.383 132.57 64.1803 132.725 63.9092L135.383 59.2547C135.661 58.7611 135.568 58.1357 135.174 57.7465C135.133 57.7074 135.089 57.6633 135.037 57.6309L130.702 54.4539C130.298 54.1605 130.102 53.6588 130.213 53.1718C130.222 53.1294 130.23 53.0857 130.247 53.0444C130.289 52.9191 130.329 52.8017 130.36 52.6694C130.823 51.1848 131.127 49.6546 131.266 48.1049C131.303 47.5863 131.681 47.1513 132.192 47.029L136.595 45.9194C137.22 45.7648 137.626 45.1537 137.537 44.5116L137.38 43.3348L136.818 39.2286C136.734 38.5837 136.169 38.116 135.52 38.1443L130.776 38.3878C130.269 38.4181 129.808 38.118 129.606 37.6497C129.067 36.3947 128.413 35.1929 127.652 34.0598C127.084 33.2111 126.456 32.404 125.773 31.6447L126.207 30.7082L127.981 26.8631C128.206 26.3894 128.098 25.8283 127.735 25.477C127.66 25.4005 127.574 25.3357 127.48 25.2847L122.841 22.5961C122.29 22.283 121.594 22.4407 121.22 22.9481L119.28 25.6371C118.953 26.0906 118.346 26.2702 117.828 26.0617C115.689 25.1964 113.426 24.678 111.125 24.526C110.582 24.4915 110.132 24.1173 110.014 23.5997L108.697 18.3009C108.625 18.0145 108.45 17.765 108.207 17.5998C107.963 17.4345 107.668 17.3651 107.377 17.4047L102.035 18.1427C101.401 18.2291 100.943 18.7858 100.981 19.4173L101.275 25.3413C101.306 25.8509 101.019 26.3217 100.555 26.5388C99.5652 27.0008 98.6019 27.5564 97.6618 28.1934C97.1607 28.5327 96.6737 28.8928 96.2022 29.2727C96.0219 29.4169 95.8055 29.5082 95.5769 29.5366C95.3483 29.565 95.1164 29.5293 94.9066 29.4336L89.7899 27.0403C89.505 26.9047 89.1797 26.8816 88.8787 26.9757C88.5776 27.0698 88.3226 27.2741 88.1643 27.5483ZM99.3829 51.5975C97.3984 47.7788 97.5723 43.7436 99.2497 40.8306C105.147 30.6289 119.429 33.2924 121.397 44.7582C121.864 47.6996 121.154 50.8331 118.75 53.6832C113.129 60.2762 103.182 58.8938 99.3829 51.5975ZM56.6636 40.0093L53.2979 41.5884L53.2177 41.6259C52.8092 41.821 52.6103 42.2903 52.755 42.7176L53.7539 45.6712C53.7708 45.7201 53.7827 45.7687 53.7909 45.8177C53.841 46.1597 53.6927 46.5103 53.3947 46.694C51.6534 47.8002 50.1494 49.245 48.971 50.9438C48.9219 51.0115 48.8645 51.0727 48.8001 51.1259C48.6786 51.2224 48.5343 51.2856 48.3812 51.3095C48.2282 51.3333 48.0717 51.317 47.9268 51.262L45.5146 50.3174C45.3603 50.2593 45.1931 50.2449 45.0312 50.2759C44.8693 50.3068 44.719 50.3819 44.5967 50.4928C44.5207 50.5647 44.4566 50.6484 44.407 50.7406L42.6618 54.1267C42.4463 54.5416 42.5854 55.063 42.9847 55.3141L45.8971 57.1624C46.0375 57.2517 46.1497 57.3794 46.2206 57.5305C46.2914 57.6817 46.3179 57.85 46.297 58.0157C46.2415 58.5073 46.2078 59.0011 46.1959 59.4957C46.1763 60.4148 46.2382 61.3338 46.3809 62.2419L46.3811 62.2464C46.4106 62.4268 46.3847 62.6119 46.3067 62.777C46.2287 62.9422 46.1025 63.0794 45.9448 63.1704L42.9135 64.9237L42.7621 65.0133C42.3708 65.235 42.2109 65.7314 42.4045 66.1463L44.0053 69.6079C44.2032 70.0277 44.6827 70.2372 45.1211 70.0865L48.3895 68.9701C48.753 68.8452 49.1549 68.9683 49.3813 69.2737C50.3616 70.5503 51.5307 71.6721 52.8524 72.5885C53.015 72.7033 53.1345 72.8696 53.192 73.0609C53.2494 73.2521 53.2414 73.4572 53.1692 73.6433L52.0637 76.5215C51.9831 76.7309 51.9824 76.963 52.0617 77.1729C52.141 77.3829 52.2948 77.5559 52.4934 77.6586L55.8736 79.4237C56.2739 79.6312 56.7651 79.4953 57.0017 79.1159L59.1661 75.676C59.2559 75.5326 59.3838 75.4174 59.5353 75.3433C59.6868 75.2692 59.8559 75.2392 60.0234 75.2567C60.4447 75.3014 60.871 75.3279 61.3016 75.3364C62.0992 75.3538 62.897 75.3101 63.688 75.2056C64.0405 75.156 64.389 75.3222 64.5629 75.6355L66.6549 79.3018C66.7658 79.4953 66.9448 79.6402 67.1566 79.7077C67.3683 79.7752 67.5976 79.7605 67.7991 79.6666L71.254 78.0496C71.4302 77.965 71.5741 77.8246 71.6635 77.65C71.7529 77.4754 71.783 77.2762 71.7492 77.0828C71.7413 77.043 71.7331 76.9988 71.7161 76.9583L70.4857 73.3109C70.3699 72.9724 70.4608 72.5986 70.725 72.3604C70.7473 72.3392 70.77 72.3173 70.7964 72.2998C70.8721 72.244 70.944 72.1925 71.0158 72.1278C71.8936 71.453 72.6968 70.6855 73.4116 69.8384C73.6458 69.5514 74.0444 69.4539 74.3925 69.5937L77.416 70.7676C77.8438 70.9358 78.331 70.7472 78.542 70.3359L78.9313 69.5837L80.283 66.9546C80.4979 66.5436 80.3593 66.0368 79.9691 65.7851L77.1003 63.9643C76.7921 63.7724 76.6457 63.4064 76.7194 63.0496C76.9181 62.0942 77.0281 61.1222 77.0477 60.1462C77.0628 59.4155 77.0264 58.6846 76.9386 57.9591L77.5753 57.5921L80.1833 56.0817C80.3395 55.9934 80.4644 55.8581 80.5403 55.6948C80.6162 55.5315 80.6394 55.3484 80.6066 55.1712C80.5942 55.0953 80.5704 55.0217 80.5361 54.953L78.9288 51.465C78.7348 51.0539 78.2645 50.8583 77.8386 50.9999L75.6067 51.7669C75.2297 51.8959 74.802 51.7495 74.5853 51.4138C73.6906 50.0236 72.5822 48.7851 71.3013 47.7444C70.9982 47.4996 70.8885 47.0948 71.0315 46.744L72.4305 43.1068C72.5053 42.9097 72.5054 42.6919 72.4309 42.4947C72.3564 42.2975 72.2124 42.1347 72.0263 42.0374L68.6066 40.2581C68.2014 40.0463 67.7062 40.1818 67.4698 40.5659L65.2188 44.1454C65.0281 44.4554 64.6681 44.6115 64.3087 44.5462C63.5419 44.4064 62.7522 44.3321 61.9432 44.3151C61.5119 44.3059 61.0804 44.3146 60.6498 44.3411C60.4856 44.3507 60.3219 44.3146 60.1769 44.2366C60.0318 44.1586 59.911 44.0419 59.8277 43.8992L57.8203 40.3856C57.7095 40.1885 57.5291 40.0405 57.3148 39.9708C57.1006 39.9011 56.8682 39.9149 56.6636 40.0093ZM53.3744 58.6872C53.7782 55.6372 55.5302 53.3541 57.7008 52.3478C65.3154 48.833 72.5619 56.2961 69.0204 63.8023C68.0899 65.7123 66.3937 67.2475 63.8249 67.9163C57.8477 69.4393 52.6072 64.5171 53.3744 58.6872ZM79.8377 73.9172L78.0171 75.7535L77.9739 75.7972C77.8675 75.9051 77.8044 76.0486 77.7964 76.2003C77.7885 76.3521 77.8363 76.5015 77.9309 76.62L79.282 78.3064C79.3046 78.3342 79.3238 78.3633 79.341 78.393C79.4546 78.604 79.4411 78.8681 79.2904 79.0595C78.4169 80.198 77.7786 81.5006 77.4128 82.8907C77.3969 82.9467 77.374 83.0003 77.3446 83.0504C77.2882 83.1425 77.2091 83.2183 77.115 83.2706C77.0209 83.3228 76.9149 83.3497 76.8074 83.3486L75.0106 83.3108C74.8963 83.3099 74.7838 83.3406 74.6856 83.3995C74.5874 83.4585 74.5072 83.5435 74.4537 83.6451C74.4211 83.7102 74.3991 83.7801 74.3888 83.8522L74.0532 86.4783C74.0335 86.6353 74.0731 86.7941 74.1642 86.9231C74.2552 87.0522 74.3911 87.1422 74.545 87.1753L76.8821 87.6823C76.9949 87.7068 77.0983 87.7632 77.1803 87.8448C77.2624 87.9264 77.3195 88.0298 77.3452 88.1429C77.4261 88.4753 77.5184 88.8037 77.6299 89.1321C77.835 89.7361 78.0932 90.3205 78.4014 90.8783L78.4025 90.8813C78.4645 90.9918 78.4915 91.1188 78.4798 91.2451C78.4681 91.3715 78.4183 91.4912 78.337 91.5883L76.7759 93.458L76.6985 93.5528C76.6003 93.6696 76.5495 93.8193 76.556 93.972C76.5625 94.1248 76.6259 94.2695 76.7337 94.3774L78.5979 96.2507C78.8263 96.4771 79.1889 96.4987 79.439 96.2953L81.3054 94.7841C81.4057 94.702 81.5292 94.6539 81.6584 94.6468C81.7875 94.6397 81.9156 94.6738 82.0242 94.7444C82.966 95.3434 83.9945 95.7918 85.0729 96.0739C85.2062 96.1097 85.3236 96.1895 85.4064 96.3005C85.4892 96.4114 85.5325 96.5471 85.5296 96.6857L85.4908 98.8274C85.4879 98.9833 85.5423 99.1348 85.6438 99.2526C85.7453 99.3705 85.8865 99.4464 86.0404 99.4658L88.6628 99.8066C88.8118 99.8257 88.9625 99.7879 89.0852 99.7006C89.2078 99.6134 89.2935 99.4831 89.3253 99.3354L89.9215 96.5738C89.9461 96.4588 90.0021 96.353 90.0833 96.2684C90.1645 96.1837 90.2677 96.1237 90.3811 96.0949C90.6686 96.0223 90.953 95.9374 91.2333 95.8404C91.7576 95.6607 92.2674 95.441 92.7585 95.1834C92.9765 95.0664 93.2431 95.0913 93.4308 95.254L95.6638 97.1432C95.782 97.2428 95.933 97.2943 96.087 97.2876C96.2411 97.2808 96.387 97.2163 96.4961 97.1068L98.3658 95.2243C98.4607 95.1269 98.5212 95.0009 98.5381 94.8656C98.5551 94.7303 98.5274 94.5932 98.4595 94.4752C98.445 94.4512 98.4292 94.4242 98.4085 94.402L96.7419 92.3185C96.5861 92.1258 96.5567 91.8601 96.6727 91.6416C96.6821 91.6223 96.6919 91.6025 96.705 91.5848C96.741 91.5303 96.7758 91.4794 96.8072 91.42C97.2196 90.7697 97.5615 90.0768 97.8269 89.3532C97.9116 89.1099 98.1484 88.9506 98.4085 88.9585L100.658 88.9992C100.977 89.0063 101.25 88.7667 101.29 88.4477L101.365 87.864L101.624 85.826C101.667 85.5064 101.456 85.209 101.142 85.1384L98.8401 84.6387C98.5937 84.5876 98.4114 84.384 98.3748 84.1337C98.278 83.4631 98.1194 82.8029 97.901 82.1619C97.7376 81.6818 97.5407 81.2139 97.3116 80.7618L97.6397 80.3701L98.9822 78.7601C99.0632 78.6651 99.1125 78.5469 99.1234 78.4222C99.1342 78.2975 99.106 78.1725 99.0426 78.0647C99.0172 78.0183 98.984 77.9776 98.9449 77.9394L97.0703 76.0505C96.8464 75.8288 96.4932 75.8141 96.2491 76.0084L94.9755 77.0434C94.7604 77.2179 94.4467 77.225 94.2259 77.058C93.3131 76.3661 92.2968 75.8242 91.2151 75.4526C90.9596 75.3655 90.792 75.1279 90.8019 74.865L90.8524 72.158C90.8545 72.0116 90.8029 71.8694 90.7076 71.7587C90.6123 71.6479 90.4798 71.5763 90.3353 71.5574L87.6838 71.217C87.3695 71.1761 87.0788 71.383 87.0156 71.6902L86.3961 74.5637C86.3452 74.8115 86.1475 74.9997 85.8976 75.0431C85.3645 75.1358 84.832 75.2766 84.3005 75.4595C84.0171 75.5568 83.7378 75.6658 83.4633 75.7863C83.3585 75.8319 83.2432 75.8476 83.1302 75.8315C83.0171 75.8154 82.9106 75.7683 82.8225 75.6953L80.681 73.8852C80.562 73.7833 80.4093 73.73 80.2531 73.736C80.097 73.7419 79.9487 73.8066 79.8377 73.9172ZM82.1191 86.8844C81.6595 84.799 82.2611 82.8903 83.4377 81.7139C87.57 77.597 94.0636 80.7266 93.5331 86.4697C93.3792 87.9382 92.6368 89.3457 91.1203 90.3975C87.5839 92.8232 83.0002 90.8697 82.1191 86.8844Z" fill="#C40A83"/>
<path d="M121.998 77.0781L122.05 79.7665L122.052 79.8305C122.055 79.9879 122.116 80.1386 122.223 80.2536C122.33 80.3687 122.476 80.44 122.631 80.4541L124.857 80.6517C124.893 80.6551 124.929 80.661 124.963 80.6702C125.201 80.7367 125.388 80.9365 125.421 81.1876C125.637 82.6624 126.145 84.0788 126.914 85.3534C126.945 85.4067 126.968 85.463 126.983 85.5196C127.011 85.6283 127.01 85.7423 126.981 85.8506C126.952 85.9589 126.895 86.0579 126.817 86.1379L125.496 87.4609C125.413 87.5462 125.354 87.6527 125.327 87.769C125.3 87.8852 125.306 88.0067 125.342 88.1201C125.367 88.188 125.401 88.2566 125.45 88.3182L127.158 90.4589C127.26 90.5867 127.407 90.6712 127.568 90.6956C127.73 90.72 127.894 90.6826 128.03 90.5907L130.089 89.1995C130.189 89.1324 130.305 89.0952 130.425 89.0922C130.544 89.0892 130.662 89.1206 130.765 89.1825C131.637 89.6999 132.577 90.0947 133.556 90.3559L133.559 90.3572C133.685 90.3901 133.799 90.4611 133.884 90.5609C133.97 90.6606 134.023 90.7842 134.036 90.9152L134.301 93.4317L134.316 93.5582C134.347 93.8819 134.625 94.1319 134.954 94.1246L137.688 94.0691C138.021 94.0599 138.297 93.8034 138.327 93.4695L138.55 90.9803C138.561 90.8458 138.614 90.7184 138.702 90.6163C138.79 90.5142 138.907 90.4426 139.038 90.4119C140.161 90.1349 141.235 89.6846 142.221 89.0769C142.344 89.0026 142.487 88.9718 142.629 88.9894C142.771 89.0071 142.903 89.0721 143.004 89.1741L144.565 90.7435C144.679 90.8579 144.831 90.9259 144.991 90.9345C145.152 90.9431 145.31 90.8915 145.435 90.7899L147.577 89.0647C147.698 88.9666 147.779 88.8262 147.802 88.6713C147.826 88.5164 147.791 88.3583 147.704 88.2281L146.083 85.7944C146.016 85.6931 145.977 85.5748 145.973 85.4529C145.969 85.331 145.998 85.2102 146.058 85.1043C146.497 84.3339 146.844 83.5146 147.094 82.663C147.164 82.4147 147.375 82.2325 147.63 82.2085L150.641 81.8892C150.8 81.8719 150.947 81.7955 151.053 81.6748C151.159 81.5542 151.216 81.3981 151.214 81.2372L151.163 78.4792C151.159 78.3378 151.109 78.2017 151.02 78.0917C150.932 77.9817 150.81 77.9038 150.674 77.8701C150.645 77.8636 150.614 77.8561 150.583 77.8553L147.835 77.6095C147.58 77.5879 147.362 77.4185 147.283 77.1745C147.275 77.1532 147.268 77.1324 147.264 77.1096C147.25 77.0429 147.237 76.9806 147.216 76.9143C147.03 76.137 146.762 75.382 146.416 74.6622C146.296 74.4233 146.348 74.1314 146.541 73.9411L148.192 72.2804C148.426 72.0462 148.445 71.6682 148.237 71.409L147.858 70.9321L146.531 69.2724C146.324 69.0102 145.951 68.955 145.673 69.1402L143.644 70.5108C143.428 70.6589 143.146 70.6497 142.934 70.497C141.94 69.7799 140.835 69.2307 139.665 68.8712L139.611 68.343L139.382 66.1763C139.37 66.0471 139.317 65.925 139.233 65.8272C139.148 65.7293 139.035 65.6607 138.909 65.6307C138.856 65.6171 138.8 65.6114 138.745 65.6138L135.993 65.6642C135.667 65.6728 135.402 65.9279 135.37 66.2504L135.221 67.9518C135.196 68.2385 134.976 68.4796 134.692 68.5259C133.521 68.714 132.386 69.0878 131.332 69.6333C131.083 69.7625 130.785 69.7179 130.598 69.521L128.624 67.5366C128.517 67.4297 128.374 67.3663 128.223 67.3583C128.072 67.3503 127.924 67.3984 127.806 67.4934L125.643 69.2407C125.386 69.4468 125.331 69.8146 125.513 70.0831L127.2 72.6146C127.348 72.8315 127.345 73.1147 127.198 73.3338C126.882 73.801 126.603 74.3023 126.356 74.8333C126.224 75.1162 126.104 75.4046 125.996 75.6975C125.954 75.8091 125.883 75.9069 125.79 75.9803C125.696 76.0537 125.585 76.0998 125.467 76.1135L122.581 76.4206C122.42 76.4375 122.27 76.5142 122.163 76.6358C122.055 76.7575 121.996 76.9152 121.998 77.0781ZM133.269 84.6885C132.639 84.3013 132.047 83.7848 131.518 83.1284C131.404 82.9905 131.293 82.8227 131.185 82.6416C130.73 81.8551 130.392 80.7723 130.38 79.9795C130.3 73.9149 137.3 71.2865 141.182 75.8147C141.244 75.8898 141.307 75.965 141.369 76.0432C141.947 76.768 142.434 78.1316 142.457 79.0593C142.468 79.5254 142.436 79.9916 142.361 80.4517C141.615 84.8529 136.863 86.8922 133.269 84.6885Z" fill="url(#paint2_linear_119_51)"/>
<path d="M24.419 79.1697L24.2962 81.5299L24.2937 81.586C24.2868 81.7243 24.3306 81.8604 24.4167 81.9684C24.5029 82.0764 24.6255 82.149 24.7612 82.1722L26.6929 82.4965C26.725 82.502 26.7557 82.5097 26.7851 82.5201C26.989 82.5945 27.1396 82.7823 27.1527 83.0047C27.2499 84.313 27.6046 85.5888 28.1964 86.7579C28.2204 86.8067 28.2367 86.8576 28.2466 86.9084C28.264 87.0052 28.2563 87.1049 28.2242 87.1979C28.1921 87.2909 28.1367 87.374 28.0634 87.4392L26.8255 88.509C26.7475 88.5785 26.69 88.6681 26.6591 88.7682C26.6283 88.8683 26.6253 88.9749 26.6505 89.0766C26.6677 89.1376 26.6933 89.2001 26.7319 89.2573L28.0906 91.25C28.1715 91.3688 28.2938 91.4528 28.4334 91.4852C28.573 91.5175 28.7195 91.496 28.8441 91.4248L30.7308 90.3451C30.822 90.2931 30.9261 90.2683 31.0309 90.2738C31.1356 90.2794 31.2366 90.3149 31.3219 90.3762C32.0515 90.8886 32.8473 91.2984 33.6872 91.5943L33.6895 91.5957C33.7984 91.6333 33.8933 91.7034 33.9616 91.7965C34.0299 91.8897 34.0684 92.0016 34.072 92.1173L34.1462 94.3412L34.151 94.4531C34.1551 94.5924 34.2109 94.7252 34.3076 94.8251C34.4042 94.9251 34.5346 94.985 34.673 94.9929L37.0656 95.13C37.2065 95.1375 37.3453 95.0924 37.4552 95.0034C37.5652 94.9145 37.6387 94.7878 37.6617 94.6478L38.0117 92.4809C38.0297 92.3641 38.0841 92.2561 38.1672 92.1725C38.2503 92.0888 38.3577 92.034 38.4738 92.0158C39.4722 91.8495 40.4387 91.5276 41.3385 91.0618C41.5685 90.9457 41.8469 91.0008 42.0167 91.2002L43.2825 92.6819C43.374 92.7898 43.5021 92.8597 43.6419 92.8782C43.7818 92.8966 43.9234 92.8622 44.0395 92.7816L46.0189 91.415C46.1313 91.3366 46.2104 91.2187 46.2407 91.0846C46.2709 90.9504 46.2501 90.8097 46.1824 90.6903L44.9183 88.4467C44.8656 88.3535 44.8396 88.2475 44.8434 88.1403C44.8472 88.0332 44.8806 87.9293 44.9398 87.8402C45.3715 87.1941 45.7264 86.4994 45.9972 85.7702C46.0337 85.6663 46.1008 85.576 46.1896 85.5113C46.2784 85.4467 46.3847 85.4108 46.4943 85.4084L49.1451 85.3329C49.2852 85.3286 49.4187 85.2714 49.5189 85.1728C49.6191 85.0742 49.6788 84.9413 49.6862 84.8005L49.8141 82.3791C49.8194 82.2549 49.7843 82.1323 49.7141 82.03C49.6439 81.9277 49.5425 81.8512 49.4251 81.8121C49.4005 81.8045 49.3737 81.7956 49.3465 81.7931L46.9613 81.3907C46.8529 81.3737 46.7518 81.3249 46.6708 81.2504C46.5898 81.1759 46.5324 81.0791 46.5058 80.972C46.5006 80.9527 46.4951 80.934 46.4937 80.9138C46.4851 80.8544 46.4779 80.7987 46.4632 80.7393C46.3495 80.045 46.1623 79.365 45.9049 78.7107C45.8153 78.4932 45.8791 78.2409 46.06 78.0871L47.606 76.7436C47.8255 76.554 47.8655 76.224 47.6999 75.9825L47.3986 75.5389L46.3426 73.9936C46.2632 73.8765 46.143 73.7936 46.0057 73.7614C45.8684 73.7292 45.7241 73.75 45.6014 73.8198L43.7428 74.8834C43.5449 74.9986 43.2991 74.9711 43.1233 74.823C42.6532 74.4256 42.1474 74.073 41.6125 73.7696C41.2124 73.5424 40.7968 73.344 40.3689 73.1757L40.3543 72.7088L40.2901 70.7941C40.2873 70.6799 40.2493 70.5695 40.1814 70.4781C40.1134 70.3866 40.0188 70.3187 39.9107 70.2837C39.865 70.2682 39.8173 70.2595 39.7692 70.2578L37.3607 70.115C37.0758 70.1004 36.8278 70.306 36.7801 70.5866L36.5437 72.0677C36.5034 72.3177 36.2959 72.5139 36.0452 72.535C35.0105 72.6203 33.9959 72.8711 33.0397 73.2778C32.8142 73.3739 32.5573 73.3146 32.4055 73.1293L30.8053 71.2558C30.7187 71.1549 30.5982 71.0896 30.4667 71.0724C30.3353 71.0551 30.2022 71.0871 30.0927 71.1622L28.0939 72.5472C27.9798 72.6253 27.8993 72.7438 27.8686 72.8791C27.8378 73.0144 27.859 73.1564 27.9279 73.2766L29.2436 75.6104C29.2995 75.7081 29.325 75.8205 29.3165 75.9329C29.3081 76.0454 29.2662 76.1526 29.1963 76.2408C28.8872 76.6371 28.61 77.0575 28.3673 77.4981C28.2343 77.7371 28.1114 77.9817 27.9987 78.231C27.9554 78.3259 27.8869 78.4068 27.8006 78.4648C27.7144 78.5229 27.6139 78.5557 27.5102 78.5597L24.9691 78.6328C24.8272 78.6367 24.6919 78.6941 24.5901 78.7935C24.4882 78.8929 24.4272 79.0272 24.419 79.1697ZM33.7912 86.6069C33.2646 86.2243 32.7802 85.7315 32.3584 85.1201C32.2673 84.9914 32.1812 84.8371 32.0983 84.6709C31.7496 83.9505 31.5222 82.9784 31.5613 82.2826C31.8703 76.9608 38.1513 75.1322 41.2599 79.3654C41.3099 79.4356 41.3604 79.5058 41.4093 79.5786C41.869 80.2532 42.2093 81.4815 42.1708 82.2963C42.1514 82.7054 42.0941 83.1119 41.9999 83.5103C41.0731 87.3178 36.7936 88.7828 33.7912 86.6069Z" fill="url(#paint3_linear_119_51)"/>
<path d="M33.9402 55.675C32.9698 55.675 32.1831 56.4166 32.1831 57.3315C32.1831 58.2464 32.9698 58.988 33.9402 58.988C34.9106 58.988 35.6973 58.2464 35.6973 57.3315C35.6973 56.4166 34.9106 55.675 33.9402 55.675Z" fill="#E1E4E5"/>
<path d="M145.62 51.4784C144.711 51.4784 143.973 52.2695 143.973 53.2454C143.973 54.2213 144.711 55.0125 145.62 55.0125C146.53 55.0125 147.268 54.2213 147.268 53.2454C147.268 52.2695 146.53 51.4784 145.62 51.4784Z" fill="#E1E4E5"/>
<path d="M62.0515 81.5177C61.0811 81.5177 60.2945 82.3088 60.2945 83.2847C60.2945 84.2606 61.0811 85.0518 62.0515 85.0518C63.0219 85.0518 63.8086 84.2606 63.8086 83.2847C63.8086 82.3088 63.0219 81.5177 62.0515 81.5177Z" fill="#E1E4E5"/>
<path d="M78.0393 32.122C76.7833 32.8513 75.1774 32.4185 74.4522 31.1554C73.7271 29.8923 74.1574 28.2772 75.4134 27.548C76.6693 26.8187 78.2753 27.2515 79.0005 28.5146C79.7256 29.7777 79.2953 31.3928 78.0393 32.122Z" fill="#E1E4E5"/>
<path d="M111.138 83.7266C112.412 83.7266 113.444 82.7377 113.444 81.5178C113.444 80.298 112.412 79.3091 111.138 79.3091C109.865 79.3091 108.832 80.298 108.832 81.5178C108.832 82.7377 109.865 83.7266 111.138 83.7266Z" fill="#C40A83"/>
<defs>
<linearGradient id="paint0_linear_119_51" x1="103.728" y1="107.179" x2="90.4182" y2="-23.4497" gradientUnits="userSpaceOnUse">
<stop stop-color="white"/>
<stop offset="1" stop-color="#EEEEEE"/>
</linearGradient>
<linearGradient id="paint1_linear_119_51" x1="103.313" y1="9.64573" x2="50.0586" y2="83.014" gradientUnits="userSpaceOnUse">
<stop stop-color="white"/>
<stop offset="1" stop-color="#EEEEEE"/>
</linearGradient>
<linearGradient id="paint2_linear_119_51" x1="119.945" y1="53.1774" x2="161.026" y2="118.348" gradientUnits="userSpaceOnUse">
<stop stop-color="white"/>
<stop offset="1" stop-color="#EEEEEE"/>
</linearGradient>
<linearGradient id="paint3_linear_119_51" x1="24.1196" y1="58.0786" x2="55.9249" y2="118.006" gradientUnits="userSpaceOnUse">
<stop stop-color="white"/>
<stop offset="1" stop-color="#EEEEEE"/>
</linearGradient>
</defs>
</svg>
