<svg width="86" height="85" viewBox="0 0 86 85" fill="none" xmlns="http://www.w3.org/2000/svg">
<path d="M19.1035 22.8203H21.8894V25.6062H19.1035V22.8203Z" fill="#C40A83" stroke="#C40A83" stroke-width="0.3"/>
<path d="M27.459 22.8203H30.2449V25.6062H27.459V22.8203Z" fill="#C40A83" stroke="#C40A83" stroke-width="0.3"/>
<path d="M85.3876 45.7824C85.4866 45.1843 85.4542 44.5719 85.2927 43.9876C85.1311 43.4034 84.8444 42.8612 84.4523 42.3989C84.0602 41.9366 83.5722 41.5652 83.0221 41.3105C82.472 41.0558 81.8731 40.9239 81.2669 40.9239H58.8458C57.5282 40.9218 56.2527 41.3885 55.2475 42.2405C54.2423 43.0925 53.5729 44.2742 53.3591 45.5744L50.8795 60.4182H45.1423L41.1178 49.3486C40.6644 48.1223 39.9718 46.9984 39.0801 46.0423C38.1885 45.0861 37.1156 44.3168 35.9239 43.7791L27.4568 40.0184V38.7931C29.8978 37.932 32.0119 36.3356 33.5081 34.2235C35.0044 32.1114 35.8094 29.5874 35.8121 26.999V8.88867C35.8104 8.52079 35.6631 8.16855 35.4026 7.90883C35.142 7.64912 34.7893 7.50303 34.4214 7.50244H17.7107C15.8642 7.50244 14.0933 8.23598 12.7875 9.54169C11.4818 10.8474 10.7483 12.6183 10.7483 14.4649V20.1037C9.56544 20.2715 8.48617 20.87 7.7174 21.7845C6.94863 22.699 6.54448 23.8651 6.58244 25.0592C6.62039 26.2533 7.09779 27.3914 7.92308 28.2552C8.74837 29.119 9.86348 29.6478 11.0546 29.7402C11.7736 32.8724 13.6547 35.6149 16.3178 37.4136V39.9491L9.25698 42.5247C6.83871 43.4006 4.74883 45 3.2715 47.1053C1.79417 49.2107 1.00105 51.72 1 54.292V61.8112C1.00481 63.3236 1.50946 64.7919 2.43541 65.9877H2.39293C2.0235 65.9877 1.66921 66.1345 1.40798 66.3957C1.14675 66.6569 1 67.0112 1 67.3807V72.9501C1 73.3196 1.14675 73.6739 1.40798 73.9351C1.66921 74.1963 2.0235 74.3431 2.39293 74.3431H5.17656V82.6984C5.17656 83.0679 5.32332 83.4222 5.58454 83.6834C5.84577 83.9446 6.20007 84.0914 6.5695 84.0914H78.9819C79.3513 84.0914 79.7056 83.9446 79.9668 83.6834C80.2281 83.4222 80.3748 83.0679 80.3748 82.6984V74.3543H83.1607C83.5301 74.3543 83.8844 74.2075 84.1456 73.9463C84.4069 73.6851 84.5536 73.3308 84.5536 72.9613V67.3807C84.5536 67.0112 84.4069 66.6569 84.1456 66.3957C83.8844 66.1345 83.5301 65.9877 83.1607 65.9877H81.9377C82.0274 65.7592 82.0882 65.5203 82.1188 65.2767L85.3876 45.7824ZM10.7483 26.8716C10.3411 26.7294 9.98812 26.464 9.73839 26.1123C9.48867 25.7606 9.35451 25.3399 9.35451 24.9085C9.35451 24.4771 9.48867 24.0565 9.73839 23.7047C9.98812 23.353 10.3411 23.0877 10.7483 22.9454V26.8716ZM56.1025 46.0328C56.2083 45.3822 56.5427 44.7907 57.0455 44.3645C57.5484 43.9383 58.1867 43.7053 58.8458 43.7075H59.2349L55.5167 65.9877H52.7733L56.1025 46.0328ZM50.4122 63.2041L49.9382 65.99H39.9909C39.6215 65.99 39.2672 65.8432 39.006 65.582C38.7448 65.3208 38.598 64.9665 38.598 64.597V63.2041H50.4122ZM13.5207 14.4626C13.5249 13.3541 13.9682 12.2924 14.7535 11.51C15.5388 10.7276 16.6022 10.2883 17.7107 10.2883H33.0285V14.76C32.208 14.8852 31.4634 15.0395 30.7301 15.1781C28.7411 15.6203 26.7106 15.8489 24.6732 15.86C23.4133 15.9297 22.1537 15.7206 20.984 15.2474C19.5007 14.6653 17.9121 14.3995 16.32 14.4671C15.9506 14.4671 15.5963 14.6139 15.3351 14.8751C15.0738 15.1363 14.9271 15.4906 14.9271 15.86V18.6459C14.9271 19.0153 14.7803 19.3696 14.5191 19.6309C14.2579 19.8921 13.9036 20.0388 13.5342 20.0388L13.5207 14.4626ZM13.5207 26.9946V22.8202C14.6273 22.8167 15.6876 22.3755 16.4701 21.593C17.2526 20.8105 17.6938 19.7503 17.6973 18.6437V17.3022C18.4887 17.3611 19.2651 17.5491 19.9958 17.8589C21.4791 18.441 23.0677 18.7068 24.6597 18.6392C26.8753 18.6285 29.0835 18.3812 31.2465 17.9014C31.8167 17.7896 32.4025 17.6778 33.0151 17.5682V26.9946C33.0347 28.287 32.797 29.5704 32.316 30.7702C31.8349 31.9699 31.1201 33.062 30.213 33.9829C29.306 34.9038 28.2248 35.6351 27.0325 36.1342C25.8402 36.6334 24.5605 36.8905 23.2679 36.8905C21.9753 36.8905 20.6957 36.6334 19.5033 36.1342C18.311 35.6351 17.2299 34.9038 16.3228 33.9829C15.4158 33.062 14.7009 31.9699 14.2199 30.7702C13.7388 29.5704 13.5012 28.287 13.5207 26.9946ZM24.662 39.4438V40.9194C24.6725 41.2917 24.6083 41.6624 24.4731 42.0095C24.3379 42.3566 24.1345 42.673 23.8748 42.9401C23.6152 43.2072 23.3046 43.4195 22.9615 43.5645C22.6184 43.7095 22.2497 43.7842 21.8772 43.7842C21.5047 43.7842 21.136 43.7095 20.7929 43.5645C20.4498 43.4195 20.1392 43.2072 19.8796 42.9401C19.62 42.673 19.4166 42.3566 19.2814 42.0095C19.1461 41.6624 19.0819 41.2917 19.0925 40.9194V38.7886C20.4312 39.2753 21.8446 39.525 23.269 39.5265C23.7346 39.5271 24.1998 39.4995 24.662 39.4438ZM3.78587 54.292C3.78598 52.2922 4.40227 50.341 5.55085 48.7039C6.69944 47.0669 8.32453 45.8235 10.205 45.1429L16.6666 42.7886C17.044 43.8618 17.7425 44.7928 18.6673 45.4554C19.592 46.1179 20.6983 46.4799 21.8358 46.4921C22.9734 46.5043 24.0871 46.1662 25.0259 45.5236C25.9647 44.8811 26.683 43.9652 27.0834 42.9004L34.7837 46.3257C35.639 46.7058 36.409 47.2543 37.0479 47.9385C37.6867 48.6226 38.1812 49.4284 38.5019 50.3077L42.1776 60.4182H37.3035L34.3141 52.9416C34.2047 52.6811 34.0205 52.4589 33.785 52.303C33.5494 52.147 33.273 52.0642 32.9905 52.0651C32.6211 52.0651 32.2668 52.2119 32.0056 52.4731C31.7443 52.7343 31.5976 53.0886 31.5976 53.458V65.99H26.0661C26.0627 64.7652 25.7349 63.5632 25.1159 62.5063C24.4969 61.4494 23.609 60.5754 22.5424 59.9733L21.8716 54.681L19.1148 55.0142L19.6157 59.0812C19.448 59.0678 19.2825 59.0253 19.1014 59.0253H10.7483V52.0629H7.96243V60.4182C7.96243 60.7877 8.10918 61.142 8.37041 61.4032C8.63163 61.6644 8.98593 61.8112 9.35536 61.8112H16.3178V65.9877H7.96243C6.85582 65.9842 5.79555 65.543 5.01306 64.7605C4.23057 63.978 3.7894 62.9178 3.78587 61.8112V54.292ZM36.0648 65.99H34.3946V60.6239L35.8144 64.1879V64.5926C35.818 65.0677 35.9027 65.5388 36.0648 65.9855V65.99ZM23.2825 65.99H19.1104V61.8112C20.217 61.8147 21.2772 62.2559 22.0597 63.0384C22.8422 63.8209 23.2834 64.8811 23.2869 65.9877L23.2825 65.99ZM77.5912 81.3077H7.96243V74.3543H77.589L77.5912 81.3077ZM81.7677 71.5595H3.78587V68.7647H81.7677V71.5595ZM79.3866 64.8206C79.3368 65.1465 79.1718 65.4437 78.9215 65.6583C78.6713 65.8728 78.3524 65.9905 78.0227 65.99H58.3472L62.0655 43.7097H81.2669C81.4689 43.7091 81.6686 43.7524 81.8522 43.8367C82.0358 43.921 82.1989 44.0442 82.3301 44.1977C82.4614 44.3513 82.5576 44.5316 82.6123 44.7261C82.6669 44.9206 82.6785 45.1246 82.6464 45.324L79.3866 64.8206Z" fill="#C40A83" stroke="#C40A83" stroke-width="0.3"/>
<path d="M70.6238 50.6699C69.7978 50.6699 68.9903 50.9149 68.3035 51.3738C67.6166 51.8327 67.0813 52.485 66.7652 53.2482C66.4491 54.0114 66.3664 54.8511 66.5275 55.6613C66.6887 56.4715 67.0864 57.2157 67.6706 57.7998C68.2547 58.3839 68.9988 58.7816 69.809 58.9428C70.6192 59.104 71.459 59.0212 72.2221 58.7051C72.9853 58.389 73.6376 57.8537 74.0965 57.1669C74.5554 56.48 74.8004 55.6725 74.8004 54.8465C74.8004 54.298 74.6924 53.7549 74.4825 53.2482C74.2726 52.7415 73.9649 52.281 73.5771 51.8932C73.1893 51.5054 72.7289 51.1977 72.2221 50.9878C71.7154 50.778 71.1723 50.6699 70.6238 50.6699ZM70.6238 56.2394C70.3483 56.2394 70.079 56.1577 69.85 56.0047C69.6209 55.8516 69.4424 55.6341 69.3369 55.3795C69.2315 55.125 69.2039 54.8449 69.2577 54.5747C69.3114 54.3045 69.4441 54.0563 69.6389 53.8615C69.8337 53.6667 70.0819 53.5341 70.3521 53.4803C70.6223 53.4266 70.9024 53.4542 71.1569 53.5596C71.4114 53.665 71.629 53.8435 71.782 54.0726C71.9351 54.3017 72.0168 54.571 72.0168 54.8465C72.0168 55.2159 71.87 55.5702 71.6088 55.8314C71.3476 56.0927 70.9933 56.2394 70.6238 56.2394Z" fill="#C40A83" stroke="#C40A83" stroke-width="0.3"/>
<path d="M80.3773 0.540039H46.9559C45.8493 0.543576 44.789 0.984742 44.0065 1.76723C43.224 2.54973 42.7828 3.61 42.7793 4.7166V26.9968C42.7834 28.103 43.2249 29.1627 44.0073 29.9447C44.7897 30.7268 45.8496 31.1676 46.9559 31.1711H56.0066L59.7717 36.1884C59.9013 36.3628 60.0699 36.5044 60.264 36.602C60.4582 36.6995 60.6724 36.7504 60.8897 36.7504C61.1069 36.7504 61.3212 36.6995 61.5153 36.602C61.7094 36.5044 61.878 36.3628 62.0076 36.1884L65.7571 31.1711H80.3795C81.4861 31.1676 82.5464 30.7264 83.3289 29.944C84.1114 29.1615 84.5526 28.1012 84.5561 26.9946V4.7166C84.5526 3.60961 84.1111 2.549 83.3281 1.76645C82.5451 0.983892 81.4843 0.542987 80.3773 0.540039ZM81.7702 26.9991C81.7702 27.3685 81.6235 27.7228 81.3623 27.984C81.101 28.2452 80.7467 28.392 80.3773 28.392H65.0595C64.843 28.3929 64.6295 28.4436 64.4357 28.5401C64.2419 28.6367 64.0728 28.7765 63.9416 28.9487L60.8897 33.0269L57.8265 28.9465C57.6953 28.7742 57.5263 28.6344 57.3324 28.5379C57.1386 28.4414 56.9252 28.3907 56.7086 28.3898H46.9603C46.5909 28.3898 46.2366 28.243 45.9754 27.9818C45.7142 27.7205 45.5674 27.3663 45.5674 26.9968V4.7166C45.5674 4.34717 45.7142 3.99288 45.9754 3.73165C46.2366 3.47042 46.5909 3.32367 46.9603 3.32367H80.3773C80.7467 3.32367 81.101 3.47042 81.3623 3.73165C81.6235 3.99288 81.7702 4.34717 81.7702 4.7166V26.9991Z" fill="#C40A83" stroke="#C40A83" stroke-width="0.3"/>
<path d="M51.1328 8.89551H76.1989V11.6814H51.1328V8.89551Z" fill="#C40A83" stroke="#C40A83" stroke-width="0.3"/>
<path d="M51.1328 14.4651H76.1989V17.251H51.1328V14.4651Z" fill="#C40A83" stroke="#C40A83" stroke-width="0.3"/>
<path d="M51.1328 20.0344H76.1989V22.8203H51.1328V20.0344Z" fill="#C40A83" stroke="#C40A83" stroke-width="0.3"/>
</svg>
