<svg width="62" height="62" viewBox="0 0 62 62" fill="none" xmlns="http://www.w3.org/2000/svg">
<circle cx="31" cy="31" r="31" fill="url(#paint0_linear_109_80)"/>
<path fill-rule="evenodd" clip-rule="evenodd" d="M31.0029 17.8252C23.7381 17.8252 17.8279 23.7353 17.8279 31.0002C17.8279 38.265 23.7381 44.1752 31.0029 44.1752C38.2678 44.1752 44.1779 38.265 44.1779 31.0002C44.1779 23.7353 38.2678 17.8252 31.0029 17.8252ZM31.0029 46.5002C22.4562 46.5002 15.5029 39.5469 15.5029 31.0002C15.5029 22.4535 22.4562 15.5002 31.0029 15.5002C39.5496 15.5002 46.5029 22.4535 46.5029 31.0002C46.5029 39.5469 39.5496 46.5002 31.0029 46.5002Z" fill="#FCFCFC"/>
<path fill-rule="evenodd" clip-rule="evenodd" d="M36.3837 34.3984C36.0861 34.3984 35.787 34.2853 35.5607 34.0559L31.0021 29.4787L26.4467 34.0559C25.9941 34.5116 25.2578 34.5116 24.8021 34.059C24.348 33.6064 24.3449 32.8717 24.799 32.416L30.1791 27.0111C30.6146 26.5725 31.3896 26.5725 31.8267 27.0111L37.2068 32.416C37.6594 32.8717 37.6578 33.6064 37.2037 34.059C36.9774 34.2853 36.6798 34.3984 36.3837 34.3984Z" fill="#FCFCFC"/>
<defs>
<linearGradient id="paint0_linear_109_80" x1="62" y1="0" x2="-12.193" y2="38.5076" gradientUnits="userSpaceOnUse">
<stop stop-color="#4B2C81"/>
<stop offset="1" stop-color="#C40A83"/>
</linearGradient>
</defs>
</svg>
