<svg width="88" height="64" viewBox="0 0 88 64" fill="none" xmlns="http://www.w3.org/2000/svg">
<path d="M44 41C48.9706 41 53 36.9706 53 32C53 27.0294 48.9706 23 44 23C39.0294 23 35 27.0294 35 32C35 36.9706 39.0294 41 44 41Z" stroke="#C40A83" stroke-width="4" stroke-linecap="round" stroke-linejoin="round"/>
<path d="M61.8118 14.0085C64.1553 16.373 66.0144 19.1809 67.2829 22.2717C68.5513 25.3624 69.2042 28.6754 69.2042 32.0212C69.2042 35.367 68.5513 38.68 67.2829 41.7708C66.0144 44.8615 64.1553 47.6694 61.8118 50.0339M26.1882 49.9915C23.8447 47.627 21.9856 44.8191 20.7171 41.7283C19.4487 38.6376 18.7958 35.3246 18.7958 31.9788C18.7958 28.633 19.4487 25.32 20.7171 22.2292C21.9856 19.1385 23.8447 16.3306 26.1882 13.9661M73.7003 2C81.5758 9.95733 86 20.7483 86 32C86 43.2517 81.5758 54.0427 73.7003 62M14.2997 62C6.42419 54.0427 2 43.2517 2 32C2 20.7483 6.42419 9.95733 14.2997 2" stroke="#C40A83" stroke-width="4" stroke-linecap="round" stroke-linejoin="round"/>
</svg>
