<svg width="96" height="96" viewBox="0 0 96 96" fill="none" xmlns="http://www.w3.org/2000/svg">
<path d="M95.15 28.8267V17.2127L90.864 16.1645C90.6746 15.6551 90.4615 15.1464 90.2247 14.6387L92.5147 10.8547L84.3002 2.6353L80.5187 4.92772C80.0109 4.69097 79.5023 4.47789 78.9929 4.28849L77.9373 0H66.3233L65.2702 4.28849C64.7608 4.47789 64.2522 4.69097 63.7444 4.92772L59.9604 2.63775L51.7459 10.8498L54.0359 14.6338C53.7991 15.1415 53.5861 15.6502 53.3967 16.1596L49.1106 17.2127V27.6241H7.67323C5.63896 27.6267 3.68875 28.436 2.2503 29.8744C0.811852 31.3129 0.00259226 33.2631 0 35.2973V72.1303C0.00259226 74.1646 0.811852 76.1148 2.2503 77.5532C3.68875 78.9917 5.63896 79.801 7.67323 79.8036H19.9509V85.9412H13.8133C12.9996 85.9418 12.2194 86.2653 11.644 86.8407C11.0687 87.4161 10.7451 88.1963 10.7445 89.0099V92.0885C10.7471 92.901 11.0715 93.6793 11.6466 94.2531C12.2218 94.8269 13.0009 95.1494 13.8133 95.15H95.15V89.0124C95.1418 83.6955 93.4099 78.5246 90.2142 74.2753C87.0185 70.026 82.5312 66.9273 77.4254 65.4441C79.0552 64.3564 80.4003 62.8935 81.3475 61.1782C82.2948 59.463 82.8166 57.5454 82.8691 55.5867C82.9217 53.628 82.5034 51.6852 81.6495 49.9216C80.7956 48.158 79.5309 46.6251 77.9618 45.4516L78.1283 45.3095L79.0002 41.7631C79.5097 41.5737 80.0183 41.3607 80.5261 41.1239L84.31 43.4139L92.5245 35.1994L90.2345 31.4154C90.4713 30.9076 90.6844 30.399 90.8738 29.8896L95.15 28.8267ZM7.67323 30.6929H59.8404C61.0612 30.6942 62.2316 31.1797 63.0948 32.043C63.958 32.9062 64.4436 34.0766 64.4448 35.2973V44.6311C63.2925 45.3009 62.2561 46.1528 61.376 47.1537V36.833C61.3754 36.0193 61.0519 35.2391 60.4765 34.6637C59.9011 34.0883 59.1209 33.7648 58.3072 33.7642H9.20886C8.39516 33.7648 7.61497 34.0883 7.0396 34.6637C6.46423 35.2391 6.1407 36.0193 6.14005 36.833V67.5259H3.0688V35.2973C3.0701 34.0766 3.55562 32.9062 4.41884 32.043C5.28206 31.1797 6.45246 30.6942 7.67323 30.6929ZM61.3883 23.0221C61.375 20.6494 62.1432 18.3384 63.5743 16.4458C65.0054 14.5532 67.0198 13.1844 69.3063 12.5507C71.5929 11.9171 74.0245 12.0538 76.2256 12.9399C78.4267 13.8259 80.2748 15.4119 81.4847 17.453C82.6946 19.4941 83.1988 21.8768 82.9196 24.233C82.6403 26.5893 81.5931 28.7881 79.9397 30.4899C78.2862 32.1916 76.1185 33.3017 73.7713 33.6487C71.4241 33.9957 69.0279 33.5603 66.9528 32.4098C66.5655 31.4638 65.9938 30.6043 65.271 29.8815C64.5481 29.1587 63.6887 28.587 62.7427 28.1997C61.8607 26.6161 61.3948 24.8347 61.3883 23.0221ZM78.0646 82.8283L72.7745 92.0885H72.6153L78.9635 69.2305C79.6199 69.5073 80.2566 69.8208 80.8787 70.1612L79.8991 76.0049L76.4139 79.4998L78.0646 82.8283ZM68.4149 92.0885L63.1272 82.8332L64.7902 79.5097L61.2854 75.9975L60.3058 70.1538C60.9282 69.8117 61.5674 69.5011 62.221 69.2232L68.5766 92.0885H68.4149ZM52.1672 67.5259H49.1106V42.9706H52.1672V67.5259ZM61.376 66.2646V63.3427C62.0742 64.1434 62.8737 64.8498 63.7542 65.4441C62.9519 65.6765 62.1622 65.9503 61.3883 66.2646H61.376ZM58.3072 67.5259H55.2482V39.9018H46.0443V67.5259H42.9706V46.0443H33.7617V67.5308H30.6929V52.1672H21.4865V67.5136H9.20886V36.833H58.317L58.3072 67.5259ZM39.892 67.5259H36.833V49.1106H39.9018L39.892 67.5259ZM27.6143 67.5259H24.5553V55.2482H27.6241L27.6143 67.5259ZM3.0688 72.1303V70.5947H54.4082C52.4062 72.3549 50.7024 74.4276 49.3629 76.7323H7.67323C6.45288 76.731 5.28285 76.2458 4.4197 75.3831C3.55656 74.5204 3.07075 73.3507 3.0688 72.1303ZM23.0221 79.8036H47.8493C47.052 81.771 46.516 83.8344 46.2549 85.9412H23.0221V79.8036ZM13.8133 92.0885V89.0124H46.0443V92.0885H13.8133ZM49.1106 92.0885V89.0124C49.113 85.724 49.872 82.4801 51.3287 79.5319C52.7853 76.5837 54.9008 74.0101 57.5113 72.0103L58.4224 77.4719L61.0577 80.1072L59.6494 82.9213L64.8832 92.0812H56.7839V79.8036H53.7151V92.0885H49.1719H49.1106ZM92.0885 89.0124V92.0885H87.4841V79.8036H84.408V92.0885H76.3086L81.5424 82.9287L80.1342 80.1146L82.7817 77.4719L83.6928 72.0103C86.3023 74.0108 88.4167 76.5846 89.8725 79.5327C91.3283 82.4809 92.0865 85.7244 92.0885 89.0124ZM76.0465 68.2533L70.5947 87.8784L65.1478 68.2533C68.7168 67.2836 72.4775 67.2836 76.0465 68.2533ZM79.8036 55.2482C79.8036 57.0696 79.2635 58.85 78.2516 60.3644C77.2397 61.8788 75.8015 63.0591 74.1188 63.7561C72.4361 64.4531 70.5845 64.6355 68.7981 64.2801C67.0118 63.9248 65.3709 63.0478 64.0831 61.7599C62.7952 60.472 61.9181 58.8311 61.5628 57.0448C61.2075 55.2584 61.3898 53.4069 62.0868 51.7242C62.7838 50.0415 63.9641 48.6032 65.4785 47.5914C66.9929 46.5795 68.7734 46.0394 70.5947 46.0394C73.0364 46.0413 75.3776 47.0122 77.1042 48.7387C78.8308 50.4653 79.8016 52.8065 79.8036 55.2482ZM88.6426 34.7242L83.8349 39.532L80.651 37.6069L79.8868 38.0037C79.0377 38.4479 78.1519 38.8182 77.2393 39.1107L76.4164 39.3703L75.351 43.7127L75.1893 43.8719C72.7575 42.8771 70.067 42.705 67.5283 43.382V36.0027C70.5067 37.0749 73.7615 37.1004 76.7563 36.0749C79.7512 35.0495 82.3073 33.0344 84.0034 30.3616C85.6995 27.6889 86.4344 24.518 86.087 21.3717C85.7396 18.2253 84.3307 15.2911 82.0923 13.0528C79.854 10.8144 76.9198 9.40547 73.7735 9.05808C70.6271 8.71069 67.4562 9.44562 64.7835 11.1417C62.1107 12.8379 60.0956 15.394 59.0702 18.3888C58.0447 21.3836 58.0702 24.6384 59.1424 27.6168H52.1672V19.6202L55.7699 18.7337L56.0295 17.9107C56.3225 16.9983 56.6929 16.1126 57.1365 15.2632L57.5553 14.499L55.6303 11.3151L60.438 6.50743L63.6219 8.43247L64.3861 8.03571C65.2352 7.59151 66.121 7.22114 67.0336 6.92868L67.8565 6.66907L68.7407 3.0688H75.542L76.4139 6.67152L77.2368 6.93113C78.1492 7.22414 79.035 7.59449 79.8844 8.03816L80.6485 8.43492L83.8324 6.50988L88.6401 11.3176L86.7151 14.5015L87.1119 15.2656C87.5561 16.1148 87.9264 17.0006 88.2189 17.9132L88.4785 18.7361L92.0788 19.6202V26.4216L88.476 27.3082L88.2164 28.1286C87.9238 29.042 87.5534 29.9285 87.1094 30.7786L86.7126 31.5428L88.6426 34.7242Z" fill="#C40A83"/>
<path d="M72.1322 30.6929C73.6498 30.6929 75.1334 30.2429 76.3952 29.3997C77.6571 28.5566 78.6406 27.3582 79.2214 25.9561C79.8021 24.554 79.9541 23.0112 79.658 21.5227C79.3619 20.0342 78.6311 18.667 77.558 17.5939C76.4849 16.5208 75.1176 15.79 73.6292 15.4939C72.1407 15.1978 70.5979 15.3498 69.1958 15.9305C67.7937 16.5113 66.5953 17.4948 65.7522 18.7567C64.909 20.0185 64.459 21.502 64.459 23.0197C64.4616 25.0539 65.2708 27.0041 66.7093 28.4426C68.1477 29.881 70.0979 30.6903 72.1322 30.6929ZM72.1322 18.4152C73.0429 18.4152 73.9331 18.6853 74.6903 19.1912C75.4475 19.6972 76.0376 20.4163 76.3861 21.2576C76.7346 22.099 76.8258 23.0248 76.6482 23.9179C76.4705 24.8111 76.032 25.6315 75.388 26.2755C74.7441 26.9194 73.9237 27.358 73.0305 27.5356C72.1373 27.7133 71.2115 27.6221 70.3702 27.2736C69.5288 26.9251 68.8097 26.3349 68.3038 25.5778C67.7978 24.8206 67.5278 23.9303 67.5278 23.0197C67.5291 21.7989 68.0146 20.6285 68.8778 19.7653C69.741 18.9021 70.9114 18.4165 72.1322 18.4152Z" fill="#C40A83"/>
<path d="M12.2812 39.9019H15.3501V42.9707H12.2812V39.9019Z" fill="#C40A83"/>
<path d="M18.416 39.9019H21.4848V42.9707H18.416V39.9019Z" fill="#C40A83"/>
<path d="M24.5527 39.9019H27.6215V42.9707H24.5527V39.9019Z" fill="#C40A83"/>
<path d="M12.2812 46.0393H27.6277V49.1081H12.2812V46.0393Z" fill="#C40A83"/>
</svg>
