<svg width="43" height="44" viewBox="0 0 43 44" fill="none" xmlns="http://www.w3.org/2000/svg">
<g clip-path="url(#clip0_109_43)">
<rect width="43" height="44" rx="21.5" fill="white"/>
<path fill-rule="evenodd" clip-rule="evenodd" d="M100 0H0V100H100V0ZM21.6377 18.1288C19.4751 18.1288 17.7225 19.9222 17.7225 22.1337C17.7225 24.3453 19.4751 26.1386 21.6377 26.1386C23.8004 26.1386 25.554 24.3453 25.554 22.1337C25.554 19.9222 23.8004 18.1288 21.6377 18.1288ZM21.6377 28.3027C18.3061 28.3027 15.6054 25.5408 15.6054 22.1337C15.6054 18.7266 18.3061 15.9648 21.6377 15.9648C24.9694 15.9648 27.6701 18.7266 27.6701 22.1337C27.6701 25.5408 24.9694 28.3027 21.6377 28.3027ZM26.7364 16.5213C26.5816 16.2841 26.499 16.0054 26.4992 15.7202C26.4995 15.338 26.6481 14.9716 26.9124 14.7014C27.1768 14.4312 27.5352 14.2793 27.9089 14.2792H27.9094C28.1883 14.2793 28.4608 14.3639 28.6926 14.5224C28.9243 14.6809 29.1049 14.9062 29.2115 15.1696C29.3181 15.4331 29.3459 15.723 29.2914 16.0026C29.2369 16.2823 29.1025 16.5391 28.9053 16.7406C28.7081 16.9422 28.4568 17.0794 28.1834 17.1349C27.9099 17.1904 27.6264 17.1617 27.3689 17.0525C27.1113 16.9433 26.8912 16.7584 26.7364 16.5213ZM14.7101 31.4994C15.1238 31.6642 15.7463 31.8593 16.8917 31.9126C18.1296 31.9709 18.5005 31.9825 21.6377 31.9825C24.775 31.9825 25.1469 31.9709 26.3852 31.9126C27.5306 31.8594 28.1533 31.6643 28.5669 31.4994C29.1153 31.281 29.5072 31.0205 29.9181 30.6007C30.329 30.1809 30.5833 29.7807 30.7969 29.2198C30.9571 28.7968 31.1488 28.1601 31.201 26.9888C31.2579 25.7214 31.2693 25.3421 31.2693 22.1338C31.2693 18.9256 31.2579 18.5462 31.201 17.2788C31.1489 16.1076 30.9581 15.4707 30.7969 15.0478C30.5833 14.4869 30.3296 14.0862 29.9181 13.666C29.5067 13.2458 29.1153 12.9847 28.5669 12.7673C28.1521 12.604 27.5306 12.4074 26.3852 12.3541C25.1459 12.2968 24.7736 12.2842 21.6377 12.2842C18.5019 12.2842 18.13 12.2958 16.8917 12.3541C15.7463 12.4073 15.1236 12.6024 14.7101 12.7673C14.1606 12.9847 13.7697 13.2452 13.3588 13.666C12.9479 14.0867 12.6936 14.4869 12.4801 15.0478C12.3203 15.472 12.1281 16.1076 12.0759 17.2788C12.0199 18.5462 12.0076 18.9256 12.0076 22.1338C12.0076 25.3421 12.019 25.7225 12.0759 26.9888C12.128 28.1601 12.3188 28.7969 12.4801 29.2198C12.6926 29.7807 12.9473 30.1805 13.3588 30.6007C13.7702 31.0209 14.1616 31.281 14.7101 31.4994ZM13.9429 10.7508C14.6892 10.4538 15.5438 10.251 16.7944 10.1928C18.0476 10.1336 18.4484 10.12 21.6387 10.12C24.829 10.12 25.2295 10.1345 26.482 10.1928C27.7317 10.25 28.5858 10.4538 29.3336 10.7508C30.1051 11.0575 30.7609 11.4678 31.4137 12.1365C32.0665 12.8051 32.468 13.4747 32.7687 14.2646C33.0591 15.0279 33.2574 15.9017 33.3144 17.1807C33.3713 18.4617 33.3846 18.8712 33.3846 22.1337C33.3846 25.3963 33.3713 25.8049 33.3144 27.0868C33.2583 28.3657 33.0591 29.2391 32.7687 30.0028C32.468 30.7928 32.0675 31.4634 31.4137 32.131C30.7598 32.7986 30.1051 33.2092 29.3326 33.5167C28.5858 33.8137 27.7318 34.0165 26.4811 34.0747C25.2285 34.1339 24.8281 34.1475 21.6377 34.1475C18.4474 34.1475 18.0476 34.133 16.7944 34.0747C15.5438 34.0165 14.6906 33.8137 13.9429 33.5167C13.17 33.2092 12.5156 32.7983 11.8618 32.131C11.2081 31.4637 10.8067 30.7928 10.5068 30.0028C10.2164 29.2391 10.0181 28.3658 9.96114 27.0868C9.90325 25.8058 9.89 25.3963 9.89 22.1337C9.89 18.8712 9.90325 18.4617 9.96114 17.1807C10.0181 15.9018 10.2164 15.0283 10.5068 14.2646C10.8067 13.4742 11.208 12.8041 11.8618 12.1365C12.5157 11.4689 13.17 11.0575 13.9429 10.7508Z" fill="url(#paint0_linear_109_43)"/>
</g>
<defs>
<linearGradient id="paint0_linear_109_43" x1="98.078" y1="100" x2="-1.922" y2="-2.69172e-06" gradientUnits="userSpaceOnUse">
<stop stop-color="#FBE18A"/>
<stop offset="0.21" stop-color="#FCBB45"/>
<stop offset="0.38" stop-color="#F75274"/>
<stop offset="0.52" stop-color="#D53692"/>
<stop offset="0.74" stop-color="#8F39CE"/>
<stop offset="1" stop-color="#5B4FE9"/>
</linearGradient>
<clipPath id="clip0_109_43">
<rect width="43" height="44" rx="21.5" fill="white"/>
</clipPath>
</defs>
</svg>
