<svg width="134" height="134" viewBox="0 0 134 134" fill="none" xmlns="http://www.w3.org/2000/svg">
<path fill-rule="evenodd" clip-rule="evenodd" d="M33.6343 38.9037C33.505 40.4856 33.5007 42.5642 33.5007 45.7833L33.5007 78.1666H100.501V45.7833C100.501 42.5642 100.496 40.4856 100.367 38.9037C100.243 37.3869 100.033 36.8245 99.8921 36.5485C99.3568 35.4979 98.5027 34.6438 97.4521 34.1085C97.176 33.9678 96.6137 33.7574 95.0969 33.6335C93.5149 33.5043 91.4364 33.4999 88.2173 33.4999L45.784 33.4999C42.5649 33.4999 40.4864 33.5043 38.9044 33.6335C37.3876 33.7574 36.8253 33.9678 36.5492 34.1085C35.4986 34.6438 34.6445 35.4979 34.1092 36.5485C33.9685 36.8245 33.7582 37.3869 33.6343 38.9037ZM22.5047 37.9944C22.685 35.787 23.0832 33.5915 24.1596 31.4789C25.7655 28.3272 28.3279 25.7648 31.4797 24.1589C33.5923 23.0825 35.7877 22.6843 37.9951 22.5039C40.0865 22.3331 42.6256 22.3332 45.5689 22.3333L88.4324 22.3333C91.3757 22.3332 93.9148 22.3331 96.0062 22.5039C98.2136 22.6843 100.409 23.0825 102.522 24.1589C105.673 25.7648 108.236 28.3272 109.842 31.4789C110.918 33.5915 111.316 35.787 111.497 37.9943C111.668 40.0857 111.667 42.6249 111.667 45.5682V89.3333H22.334L22.334 45.5681C22.3339 42.6248 22.3338 40.0857 22.5047 37.9944Z" fill="#C40A83"/>
<path fill-rule="evenodd" clip-rule="evenodd" d="M22.3523 89.4129C22.3356 89.7777 22.3343 90.2784 22.3343 91.1944C22.3343 95.0154 22.3822 95.8307 22.5245 96.3617C23.0408 98.2885 24.5458 99.7935 26.4725 100.31C27.0036 100.452 27.8188 100.5 31.6398 100.5L102.362 100.5C106.183 100.5 106.998 100.452 107.529 100.31C109.456 99.7934 110.961 98.2885 111.477 96.3617C111.62 95.8307 111.668 95.0154 111.668 91.1944C111.668 90.2784 111.666 89.7777 111.65 89.4129C111.649 89.3918 111.648 89.3723 111.647 89.3542C111.629 89.3532 111.609 89.3523 111.588 89.3513C111.223 89.3347 110.723 89.3333 109.807 89.3333L24.1954 89.3333C23.2794 89.3333 22.7786 89.3347 22.4139 89.3513C22.3928 89.3523 22.3732 89.3532 22.3552 89.3542C22.3542 89.3723 22.3532 89.3918 22.3523 89.4129ZM11.1668 90.8173C11.1629 89.5062 11.158 87.8992 11.5481 86.4432C12.5807 82.5896 15.5906 79.5797 19.4441 78.5471C20.9002 78.157 22.5072 78.1619 23.8183 78.1659C23.947 78.1663 24.0728 78.1666 24.1954 78.1666L109.807 78.1666C109.929 78.1666 110.055 78.1663 110.184 78.1659C111.495 78.1619 113.102 78.157 114.558 78.5471C118.411 79.5797 121.421 82.5896 122.454 86.4432C122.844 87.8992 122.839 89.5062 122.835 90.8173C122.835 90.946 122.834 91.0718 122.834 91.1944C122.834 91.4046 122.835 91.6128 122.835 91.8189C122.838 94.6536 122.84 97.0993 122.264 99.2519C120.715 105.032 116.2 109.547 110.42 111.096C108.267 111.673 105.821 111.67 102.987 111.667C102.78 111.667 102.572 111.667 102.362 111.667L31.6398 111.667C31.4296 111.667 31.2215 111.667 31.0154 111.667C28.1806 111.67 25.7349 111.673 23.5824 111.096C17.8021 109.547 13.2872 105.032 11.7384 99.2519C11.1616 97.0993 11.1642 94.6537 11.1672 91.8189C11.1674 91.6128 11.1676 91.4047 11.1676 91.1944C11.1676 91.0718 11.1672 90.946 11.1668 90.8173Z" fill="#C40A83"/>
</svg>
