<svg width="43" height="44" viewBox="0 0 43 44" fill="none" xmlns="http://www.w3.org/2000/svg">
<g clip-path="url(#clip0_109_33)">
<rect width="43" height="44" rx="21.5" fill="white"/>
<path fill-rule="evenodd" clip-rule="evenodd" d="M100 0H0V100H100V0ZM9.89 11.8422C9.89 10.8916 10.6677 10.12 11.6265 10.12H31.649C32.6081 10.12 33.3855 10.8916 33.3855 11.8422V32.44C33.3855 33.3909 32.6081 34.1619 31.649 34.1619H11.6265C10.6678 34.1619 9.89 33.391 9.89 32.4403V11.8422ZM17.0299 30.24V19.4162H13.514V30.24H17.0299ZM15.2727 17.9387C16.4985 17.9387 17.2616 17.1075 17.2616 16.0689C17.2387 15.0065 16.4985 14.1986 15.296 14.1986C14.0927 14.1986 13.3067 15.0065 13.3067 16.0688C13.3067 17.1075 14.0696 17.9386 15.2496 17.9386L15.2727 17.9387ZM18.976 30.24H22.4916V24.1961C22.4916 23.8731 22.5145 23.5492 22.6074 23.3184C22.8614 22.6718 23.4399 22.0025 24.4114 22.0025C25.6833 22.0025 26.1924 22.995 26.1924 24.4502V30.24H29.7079V24.034C29.7079 20.7095 27.9736 19.1625 25.6605 19.1625C23.7956 19.1625 22.9592 20.2113 22.4918 20.9487V19.4166H18.9761C19.022 20.432 18.976 30.24 18.976 30.24Z" fill="#006699"/>
</g>
<defs>
<clipPath id="clip0_109_33">
<rect width="43" height="44" rx="21.5" fill="white"/>
</clipPath>
</defs>
</svg>
