<svg width="83" height="67" viewBox="0 0 83 67" fill="none" xmlns="http://www.w3.org/2000/svg">
<path d="M53.8065 4.06878L35.1325 64.7921C35.0115 65.1856 34.8149 65.5513 34.5539 65.8681C34.2929 66.185 33.9726 66.4468 33.6113 66.6388C33.25 66.8307 32.8548 66.949 32.4482 66.9868C32.0416 67.0246 31.6317 66.9812 31.2417 66.8591C30.8517 66.737 30.4894 66.5386 30.1754 66.2752C29.8615 66.0118 29.602 65.6886 29.4118 65.324C29.2216 64.9594 29.1044 64.5606 29.0669 64.1503C29.0295 63.74 29.0725 63.3262 29.1934 62.9327L47.8675 2.20711C48.1121 1.41233 48.6596 0.748181 49.3895 0.360756C50.1193 -0.0266678 50.9718 -0.105629 51.7594 0.141244C52.547 0.388117 53.2051 0.940601 53.589 1.67716C53.9729 2.41371 54.0512 3.274 53.8065 4.06878ZM65.4134 15.5057L82.0143 31.2113C82.3148 31.4879 82.557 31.8227 82.7264 32.1959C82.8958 32.5691 82.9888 32.9729 83 33.3832C83.0019 33.8303 82.9157 34.2734 82.7465 34.6866C82.5773 35.0998 82.3284 35.4749 82.0143 35.7902L65.4134 51.4958C64.8114 52.0651 64.0099 52.3699 63.1853 52.3429C62.3606 52.316 61.5804 51.9595 61.0162 51.352C60.4519 50.7445 60.15 49.9357 60.1767 49.1035C60.2034 48.2714 60.5566 47.484 61.1586 46.9146L75.3337 33.3832L61.1608 20.0915C60.5582 19.5224 60.2043 18.735 60.177 17.9027C60.1497 17.0703 60.4511 16.261 61.015 15.6529C61.5789 15.0448 62.3591 14.6876 63.184 14.66C64.0088 14.6325 64.8108 14.9367 65.4134 15.5057ZM21.8391 20.0915L7.66404 33.3832L21.8391 46.9146C22.1372 47.1965 22.3773 47.5349 22.5458 47.9105C22.7143 48.2861 22.8078 48.6915 22.821 49.1035C22.8343 49.5156 22.7669 49.9262 22.6229 50.312C22.4789 50.6978 22.2609 51.0512 21.9816 51.352C21.7022 51.6528 21.3668 51.8952 20.9947 52.0652C20.6225 52.2352 20.2208 52.3296 19.8124 52.3429C19.4041 52.3563 18.9972 52.2883 18.6149 52.143C18.2326 51.9976 17.8824 51.7777 17.5843 51.4958L0.983441 35.7902C0.352732 35.1509 -0.000946053 34.2853 1.90067e-06 33.3832C0.0125253 32.9734 0.105956 32.5702 0.274823 32.1973C0.44369 31.8243 0.684599 31.4891 0.983441 31.2113L17.5843 15.5057C17.8827 15.2238 18.2332 15.0039 18.6158 14.8587C18.9983 14.7135 19.4055 14.6457 19.814 14.6592C20.2226 14.6728 20.6245 14.7674 20.9967 14.9377C21.369 15.108 21.7044 15.3506 21.9838 15.6517C22.2632 15.9528 22.4811 16.3065 22.625 16.6926C22.7689 17.0787 22.8361 17.4896 22.8226 17.9018C22.8092 18.3141 22.7154 18.7197 22.5467 19.0954C22.3779 19.4711 22.1375 19.8095 21.8391 20.0915Z" fill="#C40A83"/>
</svg>
