<svg width="43" height="44" viewBox="0 0 43 44" fill="none" xmlns="http://www.w3.org/2000/svg">
<g clip-path="url(#clip0_109_50)">
<rect width="43" height="44" rx="21.5" fill="white"/>
<path fill-rule="evenodd" clip-rule="evenodd" d="M100 0H0V100H100V0ZM12.2926 27.1362L10.75 33L16.5438 31.4194C18.7977 32.6594 21.4142 33.0283 23.9131 32.4583C26.4121 31.8883 28.6258 30.4177 30.1481 28.3162C31.6704 26.2148 32.3991 23.6236 32.2006 21.018C32.0021 18.4124 30.8896 15.9673 29.0674 14.1313C27.2451 12.2953 24.8353 11.1916 22.28 11.0227C19.7248 10.8538 17.1957 11.6311 15.1566 13.2119C13.1176 14.7927 11.7054 17.071 11.1794 19.6287C10.6533 22.1864 11.0485 24.8519 12.2926 27.1362ZM17.1814 29.442L16.8231 29.2251L13.5862 30.1053L14.4485 26.8324L14.2238 26.4543C13.4004 25.0857 12.9652 23.5107 12.9667 21.9046C12.9639 19.9676 13.5889 18.084 14.7444 16.5474C15.9 15.0108 17.521 13.9076 19.355 13.4095C21.1891 12.9114 23.133 13.0466 24.8839 13.7939C26.6348 14.5411 28.0943 15.8586 29.035 17.5409C29.9757 19.2232 30.3448 21.1759 30.0846 23.0946C29.8245 25.0133 28.9498 26.7904 27.5969 28.1487C26.2439 29.5071 24.4887 30.3705 22.6048 30.6045C20.7209 30.8384 18.814 30.4297 17.1814 29.442ZM24.8006 23.0544C25.0637 23.1156 25.3096 23.2373 25.5197 23.4103C25.5809 23.447 25.6478 23.4849 25.7177 23.5246C26.12 23.7528 26.623 24.0381 26.7161 24.4764C26.7617 24.728 26.7298 24.9878 26.625 25.2202C26.4466 25.605 26.1782 25.939 25.8436 26.193C25.5089 26.447 25.1182 26.6132 24.7059 26.6769C23.9822 26.7607 23.2497 26.6429 22.5864 26.336C21.9478 26.1128 21.3364 25.8154 20.7644 25.4496C19.6246 24.7297 18.6325 23.7908 17.8433 22.685C17.6004 22.3484 17.3754 21.9987 17.1691 21.6375C16.8833 21.1659 16.6664 20.6543 16.5254 20.1188C16.4698 19.8959 16.4413 19.667 16.4404 19.437C16.4264 19.0275 16.5027 18.62 16.6635 18.2445C16.8243 17.869 17.0656 17.5352 17.3695 17.2675C17.5446 17.1084 17.7611 17.0045 17.9928 16.9682C18.2245 16.9319 18.4615 16.9648 18.6753 17.0629C19.0897 17.4204 19.3953 17.8914 19.5559 18.4204C19.7636 18.7978 19.8605 19.2281 19.8352 19.6601C19.7213 20.0518 19.5124 20.4078 19.2279 20.6953C19.1467 20.7663 19.0955 20.8667 19.0853 20.9754C19.0751 21.084 19.1067 21.1925 19.1733 21.278C19.9541 22.6471 21.1655 23.7065 22.6107 24.2843C22.6911 24.3292 22.7848 24.3427 22.8742 24.3222C22.9637 24.3016 23.0427 24.2485 23.0965 24.1727C23.1765 24.0736 23.2564 23.9434 23.3407 23.8063L23.3407 23.8062C23.5252 23.5058 23.7304 23.1718 24.0014 23.0569C24.2641 22.994 24.5375 22.9932 24.8006 23.0544Z" fill="#00D95F"/>
</g>
<defs>
<clipPath id="clip0_109_50">
<rect width="43" height="44" rx="21.5" fill="white"/>
</clipPath>
</defs>
</svg>
